<mxfile host="Electron" agent="Mozilla/5.0 (Windows NT 10.0; Win64; x64) AppleWebKit/537.36 (KHTML, like Gecko) draw.io/24.7.17 Chrome/128.0.6613.36 Electron/32.0.1 Safari/537.36" version="24.7.17">
  <diagram id="C5RBs43oDa-KdzZeNtuy" name="Page-1">
    <mxGraphModel dx="2947" dy="1593" grid="1" gridSize="10" guides="1" tooltips="1" connect="1" arrows="1" fold="1" page="1" pageScale="1" pageWidth="827" pageHeight="1169" math="0" shadow="0">
      <root>
        <mxCell id="WIyWlLk6GJQsqaUBKTNV-0" />
        <mxCell id="WIyWlLk6GJQsqaUBKTNV-1" parent="WIyWlLk6GJQsqaUBKTNV-0" />
        <mxCell id="4np4y0qemSY5XBgseXxE-232" value="" style="edgeStyle=orthogonalEdgeStyle;rounded=0;orthogonalLoop=1;jettySize=auto;html=1;fontFamily=Helvetica;fontSize=13;fontColor=default;endArrow=ERzeroToMany;endFill=0;startArrow=ERmandOne;startFill=0;entryX=0;entryY=0.5;entryDx=0;entryDy=0;exitX=0.5;exitY=0;exitDx=0;exitDy=0;" parent="WIyWlLk6GJQsqaUBKTNV-1" source="4np4y0qemSY5XBgseXxE-17" target="4np4y0qemSY5XBgseXxE-214" edge="1">
          <mxGeometry relative="1" as="geometry" />
        </mxCell>
        <mxCell id="4np4y0qemSY5XBgseXxE-612" value="Has participation" style="edgeLabel;html=1;align=center;verticalAlign=middle;resizable=0;points=[];strokeColor=default;fontFamily=Helvetica;fontSize=13;fontColor=default;fillColor=none;" parent="4np4y0qemSY5XBgseXxE-232" vertex="1" connectable="0">
          <mxGeometry x="-0.1123" y="4" relative="1" as="geometry">
            <mxPoint x="58" y="4" as="offset" />
          </mxGeometry>
        </mxCell>
        <mxCell id="4np4y0qemSY5XBgseXxE-399" value="" style="edgeStyle=orthogonalEdgeStyle;rounded=0;orthogonalLoop=1;jettySize=auto;html=1;fontFamily=Helvetica;fontSize=13;fontColor=default;endArrow=ERmandOne;endFill=0;startArrow=ERzeroToMany;startFill=0;exitX=1;exitY=0.5;exitDx=0;exitDy=0;entryX=0;entryY=0.5;entryDx=0;entryDy=0;" parent="WIyWlLk6GJQsqaUBKTNV-1" source="4np4y0qemSY5XBgseXxE-186" target="4np4y0qemSY5XBgseXxE-354" edge="1">
          <mxGeometry relative="1" as="geometry" />
        </mxCell>
        <mxCell id="4np4y0qemSY5XBgseXxE-623" value="Lives in" style="edgeLabel;html=1;align=center;verticalAlign=middle;resizable=0;points=[];strokeColor=default;fontFamily=Helvetica;fontSize=13;fontColor=default;fillColor=none;" parent="4np4y0qemSY5XBgseXxE-399" vertex="1" connectable="0">
          <mxGeometry x="-0.2638" y="-1" relative="1" as="geometry">
            <mxPoint x="6" y="29" as="offset" />
          </mxGeometry>
        </mxCell>
        <mxCell id="4np4y0qemSY5XBgseXxE-560" style="edgeStyle=orthogonalEdgeStyle;rounded=0;orthogonalLoop=1;jettySize=auto;html=1;entryX=1;entryY=0.5;entryDx=0;entryDy=0;fontFamily=Helvetica;fontSize=13;fontColor=default;endArrow=ERzeroToMany;endFill=0;startArrow=ERmandOne;startFill=0;exitX=0.489;exitY=0.049;exitDx=0;exitDy=0;exitPerimeter=0;" parent="WIyWlLk6GJQsqaUBKTNV-1" source="4np4y0qemSY5XBgseXxE-204" target="4np4y0qemSY5XBgseXxE-547" edge="1">
          <mxGeometry relative="1" as="geometry" />
        </mxCell>
        <mxCell id="4np4y0qemSY5XBgseXxE-622" value="Author of" style="edgeLabel;html=1;align=center;verticalAlign=middle;resizable=0;points=[];strokeColor=default;fontFamily=Helvetica;fontSize=13;fontColor=default;fillColor=none;" parent="4np4y0qemSY5XBgseXxE-560" vertex="1" connectable="0">
          <mxGeometry x="0.098" y="5" relative="1" as="geometry">
            <mxPoint x="5" y="-5" as="offset" />
          </mxGeometry>
        </mxCell>
        <mxCell id="4np4y0qemSY5XBgseXxE-17" value="&lt;b style=&quot;font-size: 13px;&quot;&gt;&lt;font style=&quot;font-size: 13px;&quot;&gt;User&lt;/font&gt;&lt;/b&gt;" style="shape=table;startSize=30;container=1;collapsible=1;childLayout=tableLayout;fixedRows=1;rowLines=0;align=center;resizeLast=1;html=1;resizeLastRow=0;flipH=0;flipV=0;direction=east;verticalAlign=middle;fontSize=13;" parent="WIyWlLk6GJQsqaUBKTNV-1" vertex="1">
          <mxGeometry x="40" y="570" width="230" height="359" as="geometry" />
        </mxCell>
        <mxCell id="4np4y0qemSY5XBgseXxE-18" value="" style="shape=tableRow;horizontal=0;startSize=0;swimlaneHead=0;swimlaneBody=0;fillColor=none;collapsible=0;dropTarget=0;points=[[0,0.5],[1,0.5]];portConstraint=eastwest;top=0;left=0;right=0;bottom=0;align=center;fontSize=13;" parent="4np4y0qemSY5XBgseXxE-17" vertex="1">
          <mxGeometry y="30" width="230" height="29" as="geometry" />
        </mxCell>
        <mxCell id="4np4y0qemSY5XBgseXxE-19" value="PK" style="shape=partialRectangle;connectable=0;fillColor=none;top=1;left=0;bottom=1;right=0;editable=1;overflow=hidden;strokeWidth=1;fontStyle=3;fontSize=13;" parent="4np4y0qemSY5XBgseXxE-18" vertex="1">
          <mxGeometry width="30" height="29" as="geometry">
            <mxRectangle width="30" height="29" as="alternateBounds" />
          </mxGeometry>
        </mxCell>
        <mxCell id="4np4y0qemSY5XBgseXxE-20" value="user_id" style="shape=partialRectangle;connectable=0;fillColor=none;top=1;left=0;bottom=1;right=0;align=center;spacingLeft=6;overflow=hidden;strokeWidth=1;fontStyle=3;fontSize=13;" parent="4np4y0qemSY5XBgseXxE-18" vertex="1">
          <mxGeometry x="30" width="90" height="29" as="geometry">
            <mxRectangle width="90" height="29" as="alternateBounds" />
          </mxGeometry>
        </mxCell>
        <mxCell id="4np4y0qemSY5XBgseXxE-288" value="INT" style="shape=partialRectangle;connectable=0;fillColor=none;top=1;left=0;bottom=1;right=0;align=center;spacingLeft=6;overflow=hidden;strokeWidth=1;fontStyle=3;fontSize=13;" parent="4np4y0qemSY5XBgseXxE-18" vertex="1">
          <mxGeometry x="120" width="110" height="29" as="geometry">
            <mxRectangle width="110" height="29" as="alternateBounds" />
          </mxGeometry>
        </mxCell>
        <mxCell id="4np4y0qemSY5XBgseXxE-21" value="" style="shape=tableRow;horizontal=0;startSize=0;swimlaneHead=0;swimlaneBody=0;fillColor=none;collapsible=0;dropTarget=0;points=[[0,0.5],[1,0.5]];portConstraint=eastwest;top=0;left=0;right=0;bottom=1;align=center;fontSize=13;" parent="4np4y0qemSY5XBgseXxE-17" vertex="1">
          <mxGeometry y="59" width="230" height="30" as="geometry" />
        </mxCell>
        <mxCell id="4np4y0qemSY5XBgseXxE-22" value="" style="shape=partialRectangle;connectable=0;fillColor=none;top=1;left=0;bottom=1;right=0;fontStyle=0;overflow=hidden;whiteSpace=wrap;html=1;strokeWidth=1;fontSize=13;" parent="4np4y0qemSY5XBgseXxE-21" vertex="1">
          <mxGeometry width="30" height="30" as="geometry">
            <mxRectangle width="30" height="30" as="alternateBounds" />
          </mxGeometry>
        </mxCell>
        <mxCell id="4np4y0qemSY5XBgseXxE-23" value="first_name" style="shape=partialRectangle;connectable=0;fillColor=none;top=1;left=0;bottom=1;right=0;align=center;spacingLeft=6;fontStyle=0;overflow=hidden;whiteSpace=wrap;html=1;strokeWidth=1;fontSize=13;" parent="4np4y0qemSY5XBgseXxE-21" vertex="1">
          <mxGeometry x="30" width="90" height="30" as="geometry">
            <mxRectangle width="90" height="30" as="alternateBounds" />
          </mxGeometry>
        </mxCell>
        <mxCell id="4np4y0qemSY5XBgseXxE-289" value="&lt;span style=&quot;color: rgb(0, 0, 0); font-family: Helvetica; font-size: 13px; font-style: normal; font-variant-ligatures: normal; font-variant-caps: normal; font-weight: 400; letter-spacing: normal; orphans: 2; text-indent: 0px; text-transform: none; widows: 2; word-spacing: 0px; -webkit-text-stroke-width: 0px; white-space: normal; background-color: rgb(251, 251, 251); text-decoration-thickness: initial; text-decoration-style: initial; text-decoration-color: initial; float: none; display: inline !important;&quot;&gt;VARCHAR(50)&lt;/span&gt;" style="shape=partialRectangle;connectable=0;fillColor=none;top=1;left=0;bottom=1;right=0;align=center;spacingLeft=6;fontStyle=0;overflow=hidden;whiteSpace=wrap;html=1;strokeWidth=1;fontSize=13;" parent="4np4y0qemSY5XBgseXxE-21" vertex="1">
          <mxGeometry x="120" width="110" height="30" as="geometry">
            <mxRectangle width="110" height="30" as="alternateBounds" />
          </mxGeometry>
        </mxCell>
        <mxCell id="4np4y0qemSY5XBgseXxE-177" value="" style="shape=tableRow;horizontal=0;startSize=0;swimlaneHead=0;swimlaneBody=0;fillColor=none;collapsible=0;dropTarget=0;points=[[0,0.5],[1,0.5]];portConstraint=eastwest;top=0;left=0;right=0;bottom=0;fontStyle=1;fontSize=13;" parent="4np4y0qemSY5XBgseXxE-17" vertex="1">
          <mxGeometry y="89" width="230" height="30" as="geometry" />
        </mxCell>
        <mxCell id="4np4y0qemSY5XBgseXxE-178" value="" style="shape=partialRectangle;connectable=0;fillColor=none;top=0;left=0;bottom=0;right=0;editable=1;overflow=hidden;whiteSpace=wrap;html=1;fontStyle=0;fontSize=13;" parent="4np4y0qemSY5XBgseXxE-177" vertex="1">
          <mxGeometry width="30" height="30" as="geometry">
            <mxRectangle width="30" height="30" as="alternateBounds" />
          </mxGeometry>
        </mxCell>
        <mxCell id="4np4y0qemSY5XBgseXxE-179" value="last_name" style="shape=partialRectangle;connectable=0;fillColor=none;top=0;left=0;bottom=0;right=0;align=center;spacingLeft=6;overflow=hidden;whiteSpace=wrap;html=1;fontStyle=0;fontSize=13;" parent="4np4y0qemSY5XBgseXxE-177" vertex="1">
          <mxGeometry x="30" width="90" height="30" as="geometry">
            <mxRectangle width="90" height="30" as="alternateBounds" />
          </mxGeometry>
        </mxCell>
        <mxCell id="4np4y0qemSY5XBgseXxE-290" value="&lt;div style=&quot;font-size: 13px;&quot;&gt;VARCHAR(50)&lt;br style=&quot;font-size: 13px;&quot;&gt;&lt;/div&gt;" style="shape=partialRectangle;connectable=0;fillColor=none;top=0;left=0;bottom=0;right=0;align=center;spacingLeft=6;overflow=hidden;whiteSpace=wrap;html=1;fontStyle=0;fontSize=13;" parent="4np4y0qemSY5XBgseXxE-177" vertex="1">
          <mxGeometry x="120" width="110" height="30" as="geometry">
            <mxRectangle width="110" height="30" as="alternateBounds" />
          </mxGeometry>
        </mxCell>
        <mxCell id="4np4y0qemSY5XBgseXxE-180" value="" style="shape=tableRow;horizontal=0;startSize=0;swimlaneHead=0;swimlaneBody=0;fillColor=none;collapsible=0;dropTarget=0;points=[[0,0.5],[1,0.5]];portConstraint=eastwest;top=0;left=0;right=0;bottom=1;fontSize=13;" parent="4np4y0qemSY5XBgseXxE-17" vertex="1">
          <mxGeometry y="119" width="230" height="30" as="geometry" />
        </mxCell>
        <mxCell id="4np4y0qemSY5XBgseXxE-181" value="" style="shape=partialRectangle;connectable=0;fillColor=none;top=1;left=0;bottom=1;right=0;fontStyle=0;overflow=hidden;whiteSpace=wrap;html=1;strokeWidth=1;fontSize=13;" parent="4np4y0qemSY5XBgseXxE-180" vertex="1">
          <mxGeometry width="30" height="30" as="geometry">
            <mxRectangle width="30" height="30" as="alternateBounds" />
          </mxGeometry>
        </mxCell>
        <mxCell id="4np4y0qemSY5XBgseXxE-182" value="middle_name" style="shape=partialRectangle;connectable=0;fillColor=none;top=1;left=0;bottom=1;right=0;align=center;spacingLeft=6;fontStyle=0;overflow=hidden;whiteSpace=wrap;html=1;strokeWidth=1;fontSize=13;" parent="4np4y0qemSY5XBgseXxE-180" vertex="1">
          <mxGeometry x="30" width="90" height="30" as="geometry">
            <mxRectangle width="90" height="30" as="alternateBounds" />
          </mxGeometry>
        </mxCell>
        <mxCell id="4np4y0qemSY5XBgseXxE-291" value="VARCHAR(50)" style="shape=partialRectangle;connectable=0;fillColor=none;top=1;left=0;bottom=1;right=0;align=center;spacingLeft=6;fontStyle=0;overflow=hidden;whiteSpace=wrap;html=1;strokeWidth=1;fontSize=13;" parent="4np4y0qemSY5XBgseXxE-180" vertex="1">
          <mxGeometry x="120" width="110" height="30" as="geometry">
            <mxRectangle width="110" height="30" as="alternateBounds" />
          </mxGeometry>
        </mxCell>
        <mxCell id="4np4y0qemSY5XBgseXxE-183" value="" style="shape=tableRow;horizontal=0;startSize=0;swimlaneHead=0;swimlaneBody=0;fillColor=none;collapsible=0;dropTarget=0;points=[[0,0.5],[1,0.5]];portConstraint=eastwest;top=0;left=0;right=0;bottom=1;fontSize=13;" parent="4np4y0qemSY5XBgseXxE-17" vertex="1">
          <mxGeometry y="149" width="230" height="30" as="geometry" />
        </mxCell>
        <mxCell id="4np4y0qemSY5XBgseXxE-184" value="" style="shape=partialRectangle;connectable=0;fillColor=none;top=1;left=0;bottom=1;right=0;fontStyle=0;overflow=hidden;whiteSpace=wrap;html=1;strokeWidth=1;fontSize=13;" parent="4np4y0qemSY5XBgseXxE-183" vertex="1">
          <mxGeometry width="30" height="30" as="geometry">
            <mxRectangle width="30" height="30" as="alternateBounds" />
          </mxGeometry>
        </mxCell>
        <mxCell id="4np4y0qemSY5XBgseXxE-185" value="sex" style="shape=partialRectangle;connectable=0;fillColor=none;top=1;left=0;bottom=1;right=0;align=center;spacingLeft=6;fontStyle=0;overflow=hidden;whiteSpace=wrap;html=1;strokeWidth=1;fontSize=13;" parent="4np4y0qemSY5XBgseXxE-183" vertex="1">
          <mxGeometry x="30" width="90" height="30" as="geometry">
            <mxRectangle width="90" height="30" as="alternateBounds" />
          </mxGeometry>
        </mxCell>
        <mxCell id="4np4y0qemSY5XBgseXxE-292" value="VARCHAR(6)" style="shape=partialRectangle;connectable=0;fillColor=none;top=1;left=0;bottom=1;right=0;align=center;spacingLeft=6;fontStyle=0;overflow=hidden;whiteSpace=wrap;html=1;strokeWidth=1;fontSize=13;" parent="4np4y0qemSY5XBgseXxE-183" vertex="1">
          <mxGeometry x="120" width="110" height="30" as="geometry">
            <mxRectangle width="110" height="30" as="alternateBounds" />
          </mxGeometry>
        </mxCell>
        <mxCell id="4np4y0qemSY5XBgseXxE-186" value="" style="shape=tableRow;horizontal=0;startSize=0;swimlaneHead=0;swimlaneBody=0;fillColor=none;collapsible=0;dropTarget=0;points=[[0,0.5],[1,0.5]];portConstraint=eastwest;top=0;left=0;right=0;bottom=1;fontSize=13;" parent="4np4y0qemSY5XBgseXxE-17" vertex="1">
          <mxGeometry y="179" width="230" height="30" as="geometry" />
        </mxCell>
        <mxCell id="4np4y0qemSY5XBgseXxE-187" value="" style="shape=partialRectangle;connectable=0;fillColor=none;top=1;left=0;bottom=1;right=0;fontStyle=0;overflow=hidden;whiteSpace=wrap;html=1;strokeWidth=1;fontSize=13;" parent="4np4y0qemSY5XBgseXxE-186" vertex="1">
          <mxGeometry width="30" height="30" as="geometry">
            <mxRectangle width="30" height="30" as="alternateBounds" />
          </mxGeometry>
        </mxCell>
        <mxCell id="4np4y0qemSY5XBgseXxE-188" value="login" style="shape=partialRectangle;connectable=0;fillColor=none;top=1;left=0;bottom=1;right=0;align=center;spacingLeft=6;fontStyle=0;overflow=hidden;whiteSpace=wrap;html=1;strokeWidth=1;fontSize=13;" parent="4np4y0qemSY5XBgseXxE-186" vertex="1">
          <mxGeometry x="30" width="90" height="30" as="geometry">
            <mxRectangle width="90" height="30" as="alternateBounds" />
          </mxGeometry>
        </mxCell>
        <mxCell id="4np4y0qemSY5XBgseXxE-293" value="VARCHAR(50)" style="shape=partialRectangle;connectable=0;fillColor=none;top=1;left=0;bottom=1;right=0;align=center;spacingLeft=6;fontStyle=0;overflow=hidden;whiteSpace=wrap;html=1;strokeWidth=1;fontSize=13;" parent="4np4y0qemSY5XBgseXxE-186" vertex="1">
          <mxGeometry x="120" width="110" height="30" as="geometry">
            <mxRectangle width="110" height="30" as="alternateBounds" />
          </mxGeometry>
        </mxCell>
        <mxCell id="SI6b12-N1GQDOYppAXkW-12" value="" style="shape=tableRow;horizontal=0;startSize=0;swimlaneHead=0;swimlaneBody=0;fillColor=none;collapsible=0;dropTarget=0;points=[[0,0.5],[1,0.5]];portConstraint=eastwest;top=0;left=0;right=0;bottom=1;fontSize=13;" parent="4np4y0qemSY5XBgseXxE-17" vertex="1">
          <mxGeometry y="209" width="230" height="30" as="geometry" />
        </mxCell>
        <mxCell id="SI6b12-N1GQDOYppAXkW-13" value="" style="shape=partialRectangle;connectable=0;fillColor=none;top=1;left=0;bottom=1;right=0;fontStyle=0;overflow=hidden;whiteSpace=wrap;html=1;strokeWidth=1;fontSize=13;" parent="SI6b12-N1GQDOYppAXkW-12" vertex="1">
          <mxGeometry width="30" height="30" as="geometry">
            <mxRectangle width="30" height="30" as="alternateBounds" />
          </mxGeometry>
        </mxCell>
        <mxCell id="SI6b12-N1GQDOYppAXkW-14" value="password" style="shape=partialRectangle;connectable=0;fillColor=none;top=1;left=0;bottom=1;right=0;align=center;spacingLeft=6;fontStyle=0;overflow=hidden;whiteSpace=wrap;html=1;strokeWidth=1;fontSize=13;" parent="SI6b12-N1GQDOYppAXkW-12" vertex="1">
          <mxGeometry x="30" width="90" height="30" as="geometry">
            <mxRectangle width="90" height="30" as="alternateBounds" />
          </mxGeometry>
        </mxCell>
        <mxCell id="SI6b12-N1GQDOYppAXkW-15" value="VARCHAR(32&lt;span style=&quot;background-color: initial;&quot;&gt;)&lt;/span&gt;" style="shape=partialRectangle;connectable=0;fillColor=none;top=1;left=0;bottom=1;right=0;align=center;spacingLeft=6;fontStyle=0;overflow=hidden;whiteSpace=wrap;html=1;strokeWidth=1;fontSize=13;" parent="SI6b12-N1GQDOYppAXkW-12" vertex="1">
          <mxGeometry x="120" width="110" height="30" as="geometry">
            <mxRectangle width="110" height="30" as="alternateBounds" />
          </mxGeometry>
        </mxCell>
        <mxCell id="4np4y0qemSY5XBgseXxE-189" value="" style="shape=tableRow;horizontal=0;startSize=0;swimlaneHead=0;swimlaneBody=0;fillColor=none;collapsible=0;dropTarget=0;points=[[0,0.5],[1,0.5]];portConstraint=eastwest;top=0;left=0;right=0;bottom=1;fontSize=13;" parent="4np4y0qemSY5XBgseXxE-17" vertex="1">
          <mxGeometry y="239" width="230" height="30" as="geometry" />
        </mxCell>
        <mxCell id="4np4y0qemSY5XBgseXxE-190" value="" style="shape=partialRectangle;connectable=0;fillColor=none;top=1;left=0;bottom=1;right=0;fontStyle=0;overflow=hidden;whiteSpace=wrap;html=1;strokeWidth=1;fontSize=13;" parent="4np4y0qemSY5XBgseXxE-189" vertex="1">
          <mxGeometry width="30" height="30" as="geometry">
            <mxRectangle width="30" height="30" as="alternateBounds" />
          </mxGeometry>
        </mxCell>
        <mxCell id="4np4y0qemSY5XBgseXxE-191" value="score" style="shape=partialRectangle;connectable=0;fillColor=none;top=1;left=0;bottom=1;right=0;align=center;spacingLeft=6;fontStyle=0;overflow=hidden;whiteSpace=wrap;html=1;strokeWidth=1;fontSize=13;" parent="4np4y0qemSY5XBgseXxE-189" vertex="1">
          <mxGeometry x="30" width="90" height="30" as="geometry">
            <mxRectangle width="90" height="30" as="alternateBounds" />
          </mxGeometry>
        </mxCell>
        <mxCell id="4np4y0qemSY5XBgseXxE-294" value="SMALLINT" style="shape=partialRectangle;connectable=0;fillColor=none;top=1;left=0;bottom=1;right=0;align=center;spacingLeft=6;fontStyle=0;overflow=hidden;whiteSpace=wrap;html=1;strokeWidth=1;fontSize=13;" parent="4np4y0qemSY5XBgseXxE-189" vertex="1">
          <mxGeometry x="120" width="110" height="30" as="geometry">
            <mxRectangle width="110" height="30" as="alternateBounds" />
          </mxGeometry>
        </mxCell>
        <mxCell id="4np4y0qemSY5XBgseXxE-198" value="" style="shape=tableRow;horizontal=0;startSize=0;swimlaneHead=0;swimlaneBody=0;fillColor=none;collapsible=0;dropTarget=0;points=[[0,0.5],[1,0.5]];portConstraint=eastwest;top=0;left=0;right=0;bottom=1;fontSize=13;" parent="4np4y0qemSY5XBgseXxE-17" vertex="1">
          <mxGeometry y="269" width="230" height="30" as="geometry" />
        </mxCell>
        <mxCell id="4np4y0qemSY5XBgseXxE-199" value="" style="shape=partialRectangle;connectable=0;fillColor=none;top=1;left=0;bottom=1;right=0;fontStyle=0;overflow=hidden;whiteSpace=wrap;html=1;strokeWidth=1;fontSize=13;" parent="4np4y0qemSY5XBgseXxE-198" vertex="1">
          <mxGeometry width="30" height="30" as="geometry">
            <mxRectangle width="30" height="30" as="alternateBounds" />
          </mxGeometry>
        </mxCell>
        <mxCell id="4np4y0qemSY5XBgseXxE-200" value="level" style="shape=partialRectangle;connectable=0;fillColor=none;top=1;left=0;bottom=1;right=0;align=center;spacingLeft=6;fontStyle=0;overflow=hidden;whiteSpace=wrap;html=1;strokeWidth=1;fontSize=13;" parent="4np4y0qemSY5XBgseXxE-198" vertex="1">
          <mxGeometry x="30" width="90" height="30" as="geometry">
            <mxRectangle width="90" height="30" as="alternateBounds" />
          </mxGeometry>
        </mxCell>
        <mxCell id="4np4y0qemSY5XBgseXxE-295" value="SMALLINT" style="shape=partialRectangle;connectable=0;fillColor=none;top=1;left=0;bottom=1;right=0;align=center;spacingLeft=6;fontStyle=0;overflow=hidden;whiteSpace=wrap;html=1;strokeWidth=1;fontSize=13;" parent="4np4y0qemSY5XBgseXxE-198" vertex="1">
          <mxGeometry x="120" width="110" height="30" as="geometry">
            <mxRectangle width="110" height="30" as="alternateBounds" />
          </mxGeometry>
        </mxCell>
        <mxCell id="4np4y0qemSY5XBgseXxE-201" value="" style="shape=tableRow;horizontal=0;startSize=0;swimlaneHead=0;swimlaneBody=0;fillColor=none;collapsible=0;dropTarget=0;points=[[0,0.5],[1,0.5]];portConstraint=eastwest;top=0;left=0;right=0;bottom=1;fontSize=13;" parent="4np4y0qemSY5XBgseXxE-17" vertex="1">
          <mxGeometry y="299" width="230" height="30" as="geometry" />
        </mxCell>
        <mxCell id="4np4y0qemSY5XBgseXxE-202" value="" style="shape=partialRectangle;connectable=0;fillColor=none;top=1;left=0;bottom=1;right=0;fontStyle=0;overflow=hidden;whiteSpace=wrap;html=1;strokeWidth=1;fontSize=13;" parent="4np4y0qemSY5XBgseXxE-201" vertex="1">
          <mxGeometry width="30" height="30" as="geometry">
            <mxRectangle width="30" height="30" as="alternateBounds" />
          </mxGeometry>
        </mxCell>
        <mxCell id="4np4y0qemSY5XBgseXxE-203" value="about_me" style="shape=partialRectangle;connectable=0;fillColor=none;top=1;left=0;bottom=1;right=0;align=center;spacingLeft=6;fontStyle=0;overflow=hidden;whiteSpace=wrap;html=1;strokeWidth=1;fontSize=13;" parent="4np4y0qemSY5XBgseXxE-201" vertex="1">
          <mxGeometry x="30" width="90" height="30" as="geometry">
            <mxRectangle width="90" height="30" as="alternateBounds" />
          </mxGeometry>
        </mxCell>
        <mxCell id="4np4y0qemSY5XBgseXxE-296" value="VARCHAR(20&lt;span style=&quot;background-color: initial; font-size: 13px;&quot;&gt;0)&lt;/span&gt;" style="shape=partialRectangle;connectable=0;fillColor=none;top=1;left=0;bottom=1;right=0;align=center;spacingLeft=6;fontStyle=0;overflow=hidden;whiteSpace=wrap;html=1;strokeWidth=1;fontSize=13;" parent="4np4y0qemSY5XBgseXxE-201" vertex="1">
          <mxGeometry x="120" width="110" height="30" as="geometry">
            <mxRectangle width="110" height="30" as="alternateBounds" />
          </mxGeometry>
        </mxCell>
        <mxCell id="4np4y0qemSY5XBgseXxE-342" value="" style="shape=tableRow;horizontal=0;startSize=0;swimlaneHead=0;swimlaneBody=0;fillColor=none;collapsible=0;dropTarget=0;points=[[0,0.5],[1,0.5]];portConstraint=eastwest;top=0;left=0;right=0;bottom=1;fontSize=13;" parent="4np4y0qemSY5XBgseXxE-17" vertex="1">
          <mxGeometry y="329" width="230" height="30" as="geometry" />
        </mxCell>
        <mxCell id="4np4y0qemSY5XBgseXxE-343" value="FK" style="shape=partialRectangle;connectable=0;fillColor=none;top=1;left=0;bottom=1;right=0;fontStyle=2;overflow=hidden;whiteSpace=wrap;html=1;strokeWidth=1;fontSize=13;" parent="4np4y0qemSY5XBgseXxE-342" vertex="1">
          <mxGeometry width="30" height="30" as="geometry">
            <mxRectangle width="30" height="30" as="alternateBounds" />
          </mxGeometry>
        </mxCell>
        <mxCell id="4np4y0qemSY5XBgseXxE-344" value="city_id" style="shape=partialRectangle;connectable=0;fillColor=none;top=1;left=0;bottom=1;right=0;align=center;spacingLeft=6;fontStyle=2;overflow=hidden;whiteSpace=wrap;html=1;strokeWidth=1;fontSize=13;" parent="4np4y0qemSY5XBgseXxE-342" vertex="1">
          <mxGeometry x="30" width="90" height="30" as="geometry">
            <mxRectangle width="90" height="30" as="alternateBounds" />
          </mxGeometry>
        </mxCell>
        <mxCell id="4np4y0qemSY5XBgseXxE-345" value="INT" style="shape=partialRectangle;connectable=0;fillColor=none;top=1;left=0;bottom=1;right=0;align=center;spacingLeft=6;fontStyle=2;overflow=hidden;whiteSpace=wrap;html=1;strokeWidth=1;fontSize=13;" parent="4np4y0qemSY5XBgseXxE-342" vertex="1">
          <mxGeometry x="120" width="110" height="30" as="geometry">
            <mxRectangle width="110" height="30" as="alternateBounds" />
          </mxGeometry>
        </mxCell>
        <mxCell id="4np4y0qemSY5XBgseXxE-246" value="" style="edgeStyle=orthogonalEdgeStyle;rounded=0;orthogonalLoop=1;jettySize=auto;html=1;fontFamily=Helvetica;fontSize=13;fontColor=default;endArrow=ERzeroToMany;endFill=0;startArrow=ERmandOne;startFill=0;entryX=0;entryY=0.5;entryDx=0;entryDy=0;exitX=0.499;exitY=0.984;exitDx=0;exitDy=0;exitPerimeter=0;" parent="WIyWlLk6GJQsqaUBKTNV-1" source="4np4y0qemSY5XBgseXxE-631" target="4np4y0qemSY5XBgseXxE-243" edge="1">
          <mxGeometry relative="1" as="geometry">
            <mxPoint x="-18.5" y="340" as="sourcePoint" />
            <mxPoint x="311.5" y="464.9999999999998" as="targetPoint" />
          </mxGeometry>
        </mxCell>
        <mxCell id="4np4y0qemSY5XBgseXxE-637" value="Fulfills requirement" style="edgeLabel;html=1;align=center;verticalAlign=middle;resizable=0;points=[];strokeColor=default;fontFamily=Helvetica;fontSize=13;fontColor=default;fillColor=none;" parent="4np4y0qemSY5XBgseXxE-246" vertex="1" connectable="0">
          <mxGeometry x="-0.3333" y="-2" relative="1" as="geometry">
            <mxPoint as="offset" />
          </mxGeometry>
        </mxCell>
        <mxCell id="4np4y0qemSY5XBgseXxE-204" value="&lt;b style=&quot;font-size: 13px;&quot;&gt;&lt;font style=&quot;font-size: 13px;&quot;&gt;Participation&lt;/font&gt;&lt;/b&gt;" style="shape=table;startSize=30;container=1;collapsible=1;childLayout=tableLayout;fixedRows=1;rowLines=0;fontStyle=0;align=center;resizeLast=1;html=1;fontSize=13;" parent="WIyWlLk6GJQsqaUBKTNV-1" vertex="1">
          <mxGeometry x="370" y="330" width="220" height="180" as="geometry" />
        </mxCell>
        <mxCell id="4np4y0qemSY5XBgseXxE-205" value="" style="shape=tableRow;horizontal=0;startSize=0;swimlaneHead=0;swimlaneBody=0;fillColor=none;collapsible=0;dropTarget=0;points=[[0,0.5],[1,0.5]];portConstraint=eastwest;top=0;left=0;right=0;bottom=0;fontSize=13;" parent="4np4y0qemSY5XBgseXxE-204" vertex="1">
          <mxGeometry y="30" width="220" height="30" as="geometry" />
        </mxCell>
        <mxCell id="4np4y0qemSY5XBgseXxE-206" value="PK" style="shape=partialRectangle;connectable=0;fillColor=none;top=1;left=0;bottom=1;right=0;editable=1;overflow=hidden;strokeWidth=1;fontStyle=3;fontSize=13;" parent="4np4y0qemSY5XBgseXxE-205" vertex="1">
          <mxGeometry width="30" height="30" as="geometry">
            <mxRectangle width="30" height="30" as="alternateBounds" />
          </mxGeometry>
        </mxCell>
        <mxCell id="4np4y0qemSY5XBgseXxE-207" value="participation_id" style="shape=partialRectangle;connectable=0;fillColor=none;top=1;left=0;bottom=1;right=0;align=center;spacingLeft=6;overflow=hidden;strokeWidth=1;fontStyle=3;fontSize=13;" parent="4np4y0qemSY5XBgseXxE-205" vertex="1">
          <mxGeometry x="30" width="99.99999999999977" height="30" as="geometry">
            <mxRectangle width="99.99999999999977" height="30" as="alternateBounds" />
          </mxGeometry>
        </mxCell>
        <mxCell id="4np4y0qemSY5XBgseXxE-297" value="INT" style="shape=partialRectangle;connectable=0;fillColor=none;top=1;left=0;bottom=1;right=0;align=center;spacingLeft=6;overflow=hidden;strokeWidth=1;fontStyle=3;fontSize=13;" parent="4np4y0qemSY5XBgseXxE-205" vertex="1">
          <mxGeometry x="129.99999999999977" width="90.00000000000023" height="30" as="geometry">
            <mxRectangle width="90.00000000000023" height="30" as="alternateBounds" />
          </mxGeometry>
        </mxCell>
        <mxCell id="4np4y0qemSY5XBgseXxE-208" value="" style="shape=tableRow;horizontal=0;startSize=0;swimlaneHead=0;swimlaneBody=0;fillColor=none;collapsible=0;dropTarget=0;points=[[0,0.5],[1,0.5]];portConstraint=eastwest;top=0;left=0;right=0;bottom=1;fontSize=13;" parent="4np4y0qemSY5XBgseXxE-204" vertex="1">
          <mxGeometry y="60" width="220" height="30" as="geometry" />
        </mxCell>
        <mxCell id="4np4y0qemSY5XBgseXxE-209" value="" style="shape=partialRectangle;connectable=0;fillColor=none;top=1;left=0;bottom=1;right=0;fontStyle=0;overflow=hidden;whiteSpace=wrap;html=1;strokeWidth=1;fontSize=13;" parent="4np4y0qemSY5XBgseXxE-208" vertex="1">
          <mxGeometry width="30" height="30" as="geometry">
            <mxRectangle width="30" height="30" as="alternateBounds" />
          </mxGeometry>
        </mxCell>
        <mxCell id="4np4y0qemSY5XBgseXxE-210" value="type" style="shape=partialRectangle;connectable=0;fillColor=none;top=1;left=0;bottom=1;right=0;align=center;spacingLeft=6;fontStyle=0;overflow=hidden;whiteSpace=wrap;html=1;strokeWidth=1;fontSize=13;" parent="4np4y0qemSY5XBgseXxE-208" vertex="1">
          <mxGeometry x="30" width="99.99999999999977" height="30" as="geometry">
            <mxRectangle width="99.99999999999977" height="30" as="alternateBounds" />
          </mxGeometry>
        </mxCell>
        <mxCell id="4np4y0qemSY5XBgseXxE-298" value="VARCHAR(15)" style="shape=partialRectangle;connectable=0;fillColor=none;top=1;left=0;bottom=1;right=0;align=center;spacingLeft=6;fontStyle=0;overflow=hidden;whiteSpace=wrap;html=1;strokeWidth=1;fontSize=13;" parent="4np4y0qemSY5XBgseXxE-208" vertex="1">
          <mxGeometry x="129.99999999999977" width="90.00000000000023" height="30" as="geometry">
            <mxRectangle width="90.00000000000023" height="30" as="alternateBounds" />
          </mxGeometry>
        </mxCell>
        <mxCell id="4np4y0qemSY5XBgseXxE-211" value="" style="shape=tableRow;horizontal=0;startSize=0;swimlaneHead=0;swimlaneBody=0;fillColor=none;collapsible=0;dropTarget=0;points=[[0,0.5],[1,0.5]];portConstraint=eastwest;top=0;left=0;right=0;bottom=0;fontStyle=1;fontSize=13;" parent="4np4y0qemSY5XBgseXxE-204" vertex="1">
          <mxGeometry y="90" width="220" height="30" as="geometry" />
        </mxCell>
        <mxCell id="4np4y0qemSY5XBgseXxE-212" value="" style="shape=partialRectangle;connectable=0;fillColor=none;top=0;left=0;bottom=0;right=0;editable=1;overflow=hidden;whiteSpace=wrap;html=1;fontStyle=0;fontSize=13;" parent="4np4y0qemSY5XBgseXxE-211" vertex="1">
          <mxGeometry width="30" height="30" as="geometry">
            <mxRectangle width="30" height="30" as="alternateBounds" />
          </mxGeometry>
        </mxCell>
        <mxCell id="4np4y0qemSY5XBgseXxE-213" value="stat" style="shape=partialRectangle;connectable=0;fillColor=none;top=0;left=0;bottom=0;right=0;align=center;spacingLeft=6;overflow=hidden;whiteSpace=wrap;html=1;fontStyle=0;fontSize=13;" parent="4np4y0qemSY5XBgseXxE-211" vertex="1">
          <mxGeometry x="30" width="99.99999999999977" height="30" as="geometry">
            <mxRectangle width="99.99999999999977" height="30" as="alternateBounds" />
          </mxGeometry>
        </mxCell>
        <mxCell id="4np4y0qemSY5XBgseXxE-299" value="SMALLINT" style="shape=partialRectangle;connectable=0;fillColor=none;top=0;left=0;bottom=0;right=0;align=center;spacingLeft=6;overflow=hidden;whiteSpace=wrap;html=1;fontStyle=0;fontSize=13;" parent="4np4y0qemSY5XBgseXxE-211" vertex="1">
          <mxGeometry x="129.99999999999977" width="90.00000000000023" height="30" as="geometry">
            <mxRectangle width="90.00000000000023" height="30" as="alternateBounds" />
          </mxGeometry>
        </mxCell>
        <mxCell id="4np4y0qemSY5XBgseXxE-214" value="" style="shape=tableRow;horizontal=0;startSize=0;swimlaneHead=0;swimlaneBody=0;fillColor=none;collapsible=0;dropTarget=0;points=[[0,0.5],[1,0.5]];portConstraint=eastwest;top=0;left=0;right=0;bottom=1;fontSize=13;" parent="4np4y0qemSY5XBgseXxE-204" vertex="1">
          <mxGeometry y="120" width="220" height="30" as="geometry" />
        </mxCell>
        <mxCell id="4np4y0qemSY5XBgseXxE-215" value="FK" style="shape=partialRectangle;connectable=0;fillColor=none;top=1;left=0;bottom=1;right=0;fontStyle=2;overflow=hidden;whiteSpace=wrap;html=1;strokeWidth=1;fontSize=13;" parent="4np4y0qemSY5XBgseXxE-214" vertex="1">
          <mxGeometry width="30" height="30" as="geometry">
            <mxRectangle width="30" height="30" as="alternateBounds" />
          </mxGeometry>
        </mxCell>
        <mxCell id="4np4y0qemSY5XBgseXxE-216" value="user_id" style="shape=partialRectangle;connectable=0;fillColor=none;top=1;left=0;bottom=1;right=0;align=center;spacingLeft=6;fontStyle=2;overflow=hidden;whiteSpace=wrap;html=1;strokeWidth=1;fontSize=13;" parent="4np4y0qemSY5XBgseXxE-214" vertex="1">
          <mxGeometry x="30" width="99.99999999999977" height="30" as="geometry">
            <mxRectangle width="99.99999999999977" height="30" as="alternateBounds" />
          </mxGeometry>
        </mxCell>
        <mxCell id="4np4y0qemSY5XBgseXxE-300" value="INT" style="shape=partialRectangle;connectable=0;fillColor=none;top=1;left=0;bottom=1;right=0;align=center;spacingLeft=6;fontStyle=2;overflow=hidden;whiteSpace=wrap;html=1;strokeWidth=1;fontSize=13;" parent="4np4y0qemSY5XBgseXxE-214" vertex="1">
          <mxGeometry x="129.99999999999977" width="90.00000000000023" height="30" as="geometry">
            <mxRectangle width="90.00000000000023" height="30" as="alternateBounds" />
          </mxGeometry>
        </mxCell>
        <mxCell id="4np4y0qemSY5XBgseXxE-631" value="" style="shape=tableRow;horizontal=0;startSize=0;swimlaneHead=0;swimlaneBody=0;fillColor=none;collapsible=0;dropTarget=0;points=[[0,0.5],[1,0.5]];portConstraint=eastwest;top=0;left=0;right=0;bottom=1;fontSize=13;" parent="4np4y0qemSY5XBgseXxE-204" vertex="1">
          <mxGeometry y="150" width="220" height="30" as="geometry" />
        </mxCell>
        <mxCell id="4np4y0qemSY5XBgseXxE-632" value="FK" style="shape=partialRectangle;connectable=0;fillColor=none;top=1;left=0;bottom=1;right=0;fontStyle=2;overflow=hidden;whiteSpace=wrap;html=1;strokeWidth=1;fontSize=13;" parent="4np4y0qemSY5XBgseXxE-631" vertex="1">
          <mxGeometry width="30" height="30" as="geometry">
            <mxRectangle width="30" height="30" as="alternateBounds" />
          </mxGeometry>
        </mxCell>
        <mxCell id="4np4y0qemSY5XBgseXxE-633" value="cleanday_id" style="shape=partialRectangle;connectable=0;fillColor=none;top=1;left=0;bottom=1;right=0;align=center;spacingLeft=6;fontStyle=2;overflow=hidden;whiteSpace=wrap;html=1;strokeWidth=1;fontSize=13;" parent="4np4y0qemSY5XBgseXxE-631" vertex="1">
          <mxGeometry x="30" width="99.99999999999977" height="30" as="geometry">
            <mxRectangle width="99.99999999999977" height="30" as="alternateBounds" />
          </mxGeometry>
        </mxCell>
        <mxCell id="4np4y0qemSY5XBgseXxE-634" value="INT" style="shape=partialRectangle;connectable=0;fillColor=none;top=1;left=0;bottom=1;right=0;align=center;spacingLeft=6;fontStyle=2;overflow=hidden;whiteSpace=wrap;html=1;strokeWidth=1;fontSize=13;" parent="4np4y0qemSY5XBgseXxE-631" vertex="1">
          <mxGeometry x="129.99999999999977" width="90.00000000000023" height="30" as="geometry">
            <mxRectangle width="90.00000000000023" height="30" as="alternateBounds" />
          </mxGeometry>
        </mxCell>
        <mxCell id="4np4y0qemSY5XBgseXxE-233" value="&lt;span style=&quot;font-size: 13px;&quot;&gt;&lt;font style=&quot;font-size: 13px;&quot;&gt;Participation_Requirement&lt;/font&gt;&lt;/span&gt;" style="shape=table;startSize=30;container=1;collapsible=1;childLayout=tableLayout;fixedRows=1;rowLines=0;fontStyle=1;align=center;resizeLast=1;html=1;fontSize=13;" parent="WIyWlLk6GJQsqaUBKTNV-1" vertex="1">
          <mxGeometry x="790" y="680" width="190" height="90" as="geometry" />
        </mxCell>
        <mxCell id="4np4y0qemSY5XBgseXxE-243" value="" style="shape=tableRow;horizontal=0;startSize=0;swimlaneHead=0;swimlaneBody=0;fillColor=none;collapsible=0;dropTarget=0;points=[[0,0.5],[1,0.5]];portConstraint=eastwest;top=0;left=0;right=0;bottom=1;fontSize=13;" parent="4np4y0qemSY5XBgseXxE-233" vertex="1">
          <mxGeometry y="30" width="190" height="30" as="geometry" />
        </mxCell>
        <mxCell id="4np4y0qemSY5XBgseXxE-244" value="PK, FK" style="shape=partialRectangle;connectable=0;fillColor=none;top=1;left=0;bottom=1;right=0;fontStyle=3;overflow=hidden;whiteSpace=wrap;html=1;strokeWidth=1;fontSize=13;" parent="4np4y0qemSY5XBgseXxE-243" vertex="1">
          <mxGeometry width="30" height="30" as="geometry">
            <mxRectangle width="30" height="30" as="alternateBounds" />
          </mxGeometry>
        </mxCell>
        <mxCell id="4np4y0qemSY5XBgseXxE-245" value="participation_id" style="shape=partialRectangle;connectable=0;fillColor=none;top=1;left=0;bottom=1;right=0;align=center;spacingLeft=6;fontStyle=3;overflow=hidden;whiteSpace=wrap;html=1;strokeWidth=1;fontSize=13;" parent="4np4y0qemSY5XBgseXxE-243" vertex="1">
          <mxGeometry x="30" width="110" height="30" as="geometry">
            <mxRectangle width="110" height="30" as="alternateBounds" />
          </mxGeometry>
        </mxCell>
        <mxCell id="4np4y0qemSY5XBgseXxE-301" value="INT" style="shape=partialRectangle;connectable=0;fillColor=none;top=1;left=0;bottom=1;right=0;align=center;spacingLeft=6;fontStyle=3;overflow=hidden;whiteSpace=wrap;html=1;strokeWidth=1;fontSize=13;" parent="4np4y0qemSY5XBgseXxE-243" vertex="1">
          <mxGeometry x="140" width="50" height="30" as="geometry">
            <mxRectangle width="50" height="30" as="alternateBounds" />
          </mxGeometry>
        </mxCell>
        <mxCell id="4np4y0qemSY5XBgseXxE-251" value="" style="shape=tableRow;horizontal=0;startSize=0;swimlaneHead=0;swimlaneBody=0;fillColor=none;collapsible=0;dropTarget=0;points=[[0,0.5],[1,0.5]];portConstraint=eastwest;top=0;left=0;right=0;bottom=1;fontSize=13;" parent="4np4y0qemSY5XBgseXxE-233" vertex="1">
          <mxGeometry y="60" width="190" height="30" as="geometry" />
        </mxCell>
        <mxCell id="4np4y0qemSY5XBgseXxE-252" value="PK, FK" style="shape=partialRectangle;connectable=0;fillColor=none;top=1;left=0;bottom=1;right=0;fontStyle=3;overflow=hidden;whiteSpace=wrap;html=1;strokeWidth=1;fontSize=13;" parent="4np4y0qemSY5XBgseXxE-251" vertex="1">
          <mxGeometry width="30" height="30" as="geometry">
            <mxRectangle width="30" height="30" as="alternateBounds" />
          </mxGeometry>
        </mxCell>
        <mxCell id="4np4y0qemSY5XBgseXxE-253" value="requirement_id" style="shape=partialRectangle;connectable=0;fillColor=none;top=1;left=0;bottom=1;right=0;align=center;spacingLeft=6;fontStyle=3;overflow=hidden;whiteSpace=wrap;html=1;strokeWidth=1;fontSize=13;" parent="4np4y0qemSY5XBgseXxE-251" vertex="1">
          <mxGeometry x="30" width="110" height="30" as="geometry">
            <mxRectangle width="110" height="30" as="alternateBounds" />
          </mxGeometry>
        </mxCell>
        <mxCell id="4np4y0qemSY5XBgseXxE-302" value="INT" style="shape=partialRectangle;connectable=0;fillColor=none;top=1;left=0;bottom=1;right=0;align=center;spacingLeft=6;fontStyle=3;overflow=hidden;whiteSpace=wrap;html=1;strokeWidth=1;fontSize=13;" parent="4np4y0qemSY5XBgseXxE-251" vertex="1">
          <mxGeometry x="140" width="50" height="30" as="geometry">
            <mxRectangle width="50" height="30" as="alternateBounds" />
          </mxGeometry>
        </mxCell>
        <mxCell id="4np4y0qemSY5XBgseXxE-265" value="&lt;b style=&quot;font-size: 13px;&quot;&gt;&lt;font style=&quot;font-size: 13px;&quot;&gt;Requirement&lt;/font&gt;&lt;/b&gt;" style="shape=table;startSize=30;container=1;collapsible=1;childLayout=tableLayout;fixedRows=1;rowLines=0;fontStyle=0;align=center;resizeLast=1;html=1;fontSize=13;" parent="WIyWlLk6GJQsqaUBKTNV-1" vertex="1">
          <mxGeometry x="1140" y="760" width="250" height="90" as="geometry" />
        </mxCell>
        <mxCell id="4np4y0qemSY5XBgseXxE-266" value="" style="shape=tableRow;horizontal=0;startSize=0;swimlaneHead=0;swimlaneBody=0;fillColor=none;collapsible=0;dropTarget=0;points=[[0,0.5],[1,0.5]];portConstraint=eastwest;top=0;left=0;right=0;bottom=0;fontSize=13;" parent="4np4y0qemSY5XBgseXxE-265" vertex="1">
          <mxGeometry y="30" width="250" height="30" as="geometry" />
        </mxCell>
        <mxCell id="4np4y0qemSY5XBgseXxE-267" value="PK" style="shape=partialRectangle;connectable=0;fillColor=none;top=1;left=0;bottom=1;right=0;editable=1;overflow=hidden;strokeWidth=1;fontStyle=3;fontSize=13;" parent="4np4y0qemSY5XBgseXxE-266" vertex="1">
          <mxGeometry width="30" height="30" as="geometry">
            <mxRectangle width="30" height="30" as="alternateBounds" />
          </mxGeometry>
        </mxCell>
        <mxCell id="4np4y0qemSY5XBgseXxE-268" value="requirement_id" style="shape=partialRectangle;connectable=0;fillColor=none;top=1;left=0;bottom=1;right=0;align=center;spacingLeft=6;overflow=hidden;strokeWidth=1;fontStyle=3;fontSize=13;" parent="4np4y0qemSY5XBgseXxE-266" vertex="1">
          <mxGeometry x="30" width="110" height="30" as="geometry">
            <mxRectangle width="110" height="30" as="alternateBounds" />
          </mxGeometry>
        </mxCell>
        <mxCell id="4np4y0qemSY5XBgseXxE-303" value="INT" style="shape=partialRectangle;connectable=0;fillColor=none;top=1;left=0;bottom=1;right=0;align=center;spacingLeft=6;overflow=hidden;strokeWidth=1;fontStyle=3;fontSize=13;" parent="4np4y0qemSY5XBgseXxE-266" vertex="1">
          <mxGeometry x="140" width="110" height="30" as="geometry">
            <mxRectangle width="110" height="30" as="alternateBounds" />
          </mxGeometry>
        </mxCell>
        <mxCell id="4np4y0qemSY5XBgseXxE-269" value="" style="shape=tableRow;horizontal=0;startSize=0;swimlaneHead=0;swimlaneBody=0;fillColor=none;collapsible=0;dropTarget=0;points=[[0,0.5],[1,0.5]];portConstraint=eastwest;top=0;left=0;right=0;bottom=1;fontSize=13;" parent="4np4y0qemSY5XBgseXxE-265" vertex="1">
          <mxGeometry y="60" width="250" height="30" as="geometry" />
        </mxCell>
        <mxCell id="4np4y0qemSY5XBgseXxE-270" value="" style="shape=partialRectangle;connectable=0;fillColor=none;top=1;left=0;bottom=1;right=0;fontStyle=0;overflow=hidden;whiteSpace=wrap;html=1;strokeWidth=1;fontSize=13;" parent="4np4y0qemSY5XBgseXxE-269" vertex="1">
          <mxGeometry width="30" height="30" as="geometry">
            <mxRectangle width="30" height="30" as="alternateBounds" />
          </mxGeometry>
        </mxCell>
        <mxCell id="4np4y0qemSY5XBgseXxE-271" value="name" style="shape=partialRectangle;connectable=0;fillColor=none;top=1;left=0;bottom=1;right=0;align=center;spacingLeft=6;fontStyle=0;overflow=hidden;whiteSpace=wrap;html=1;strokeWidth=1;fontSize=13;" parent="4np4y0qemSY5XBgseXxE-269" vertex="1">
          <mxGeometry x="30" width="110" height="30" as="geometry">
            <mxRectangle width="110" height="30" as="alternateBounds" />
          </mxGeometry>
        </mxCell>
        <mxCell id="4np4y0qemSY5XBgseXxE-304" value="VARCHAR(100)" style="shape=partialRectangle;connectable=0;fillColor=none;top=1;left=0;bottom=1;right=0;align=center;spacingLeft=6;fontStyle=0;overflow=hidden;whiteSpace=wrap;html=1;strokeWidth=1;fontSize=13;" parent="4np4y0qemSY5XBgseXxE-269" vertex="1">
          <mxGeometry x="140" width="110" height="30" as="geometry">
            <mxRectangle width="110" height="30" as="alternateBounds" />
          </mxGeometry>
        </mxCell>
        <mxCell id="4np4y0qemSY5XBgseXxE-278" style="edgeStyle=orthogonalEdgeStyle;rounded=0;orthogonalLoop=1;jettySize=auto;html=1;exitX=0;exitY=0.5;exitDx=0;exitDy=0;entryX=1;entryY=0.5;entryDx=0;entryDy=0;fontFamily=Helvetica;fontSize=13;fontColor=default;endArrow=ERzeroToMany;endFill=0;startArrow=ERmandOne;startFill=0;" parent="WIyWlLk6GJQsqaUBKTNV-1" source="4np4y0qemSY5XBgseXxE-266" target="4np4y0qemSY5XBgseXxE-251" edge="1">
          <mxGeometry relative="1" as="geometry" />
        </mxCell>
        <mxCell id="4np4y0qemSY5XBgseXxE-638" value="Performed by partification" style="edgeLabel;html=1;align=center;verticalAlign=middle;resizable=0;points=[];strokeColor=default;fontFamily=Helvetica;fontSize=13;fontColor=default;fillColor=none;" parent="4np4y0qemSY5XBgseXxE-278" vertex="1" connectable="0">
          <mxGeometry x="0.0056" y="-1" relative="1" as="geometry">
            <mxPoint as="offset" />
          </mxGeometry>
        </mxCell>
        <mxCell id="4np4y0qemSY5XBgseXxE-522" style="edgeStyle=orthogonalEdgeStyle;rounded=0;orthogonalLoop=1;jettySize=auto;html=1;entryX=0;entryY=0.5;entryDx=0;entryDy=0;fontFamily=Helvetica;fontSize=13;fontColor=default;endArrow=ERzeroToMany;endFill=0;startArrow=ERmandOne;startFill=0;" parent="WIyWlLk6GJQsqaUBKTNV-1" source="4np4y0qemSY5XBgseXxE-305" target="4np4y0qemSY5XBgseXxE-513" edge="1">
          <mxGeometry relative="1" as="geometry" />
        </mxCell>
        <mxCell id="4np4y0qemSY5XBgseXxE-625" value="Has requirement&amp;nbsp;" style="edgeLabel;html=1;align=center;verticalAlign=middle;resizable=0;points=[];strokeColor=default;fontFamily=Helvetica;fontSize=13;fontColor=default;fillColor=none;" parent="4np4y0qemSY5XBgseXxE-522" vertex="1" connectable="0">
          <mxGeometry x="-0.269" y="-6" relative="1" as="geometry">
            <mxPoint as="offset" />
          </mxGeometry>
        </mxCell>
        <mxCell id="4np4y0qemSY5XBgseXxE-305" value="&lt;b style=&quot;font-size: 13px;&quot;&gt;&lt;font style=&quot;font-size: 13px;&quot;&gt;CleanDay&lt;/font&gt;&lt;/b&gt;" style="shape=table;startSize=30;container=1;collapsible=1;childLayout=tableLayout;fixedRows=1;rowLines=0;align=center;resizeLast=1;html=1;resizeLastRow=0;flipH=0;flipV=0;direction=east;verticalAlign=middle;fontSize=13;" parent="WIyWlLk6GJQsqaUBKTNV-1" vertex="1">
          <mxGeometry x="880" y="130" width="260" height="360" as="geometry" />
        </mxCell>
        <mxCell id="4np4y0qemSY5XBgseXxE-306" value="" style="shape=tableRow;horizontal=0;startSize=0;swimlaneHead=0;swimlaneBody=0;fillColor=none;collapsible=0;dropTarget=0;points=[[0,0.5],[1,0.5]];portConstraint=eastwest;top=0;left=0;right=0;bottom=0;align=center;fontSize=13;" parent="4np4y0qemSY5XBgseXxE-305" vertex="1">
          <mxGeometry y="30" width="260" height="29" as="geometry" />
        </mxCell>
        <mxCell id="4np4y0qemSY5XBgseXxE-307" value="PK" style="shape=partialRectangle;connectable=0;fillColor=none;top=1;left=0;bottom=1;right=0;editable=1;overflow=hidden;strokeWidth=1;fontStyle=3;fontSize=13;" parent="4np4y0qemSY5XBgseXxE-306" vertex="1">
          <mxGeometry width="30" height="29" as="geometry">
            <mxRectangle width="30" height="29" as="alternateBounds" />
          </mxGeometry>
        </mxCell>
        <mxCell id="4np4y0qemSY5XBgseXxE-308" value="cleanday_id" style="shape=partialRectangle;connectable=0;fillColor=none;top=1;left=0;bottom=1;right=0;align=center;spacingLeft=6;overflow=hidden;strokeWidth=1;fontStyle=3;fontSize=13;" parent="4np4y0qemSY5XBgseXxE-306" vertex="1">
          <mxGeometry x="30" width="130" height="29" as="geometry">
            <mxRectangle width="130" height="29" as="alternateBounds" />
          </mxGeometry>
        </mxCell>
        <mxCell id="4np4y0qemSY5XBgseXxE-309" value="INT" style="shape=partialRectangle;connectable=0;fillColor=none;top=1;left=0;bottom=1;right=0;align=center;spacingLeft=6;overflow=hidden;strokeWidth=1;fontStyle=3;fontSize=13;" parent="4np4y0qemSY5XBgseXxE-306" vertex="1">
          <mxGeometry x="160" width="100" height="29" as="geometry">
            <mxRectangle width="100" height="29" as="alternateBounds" />
          </mxGeometry>
        </mxCell>
        <mxCell id="4np4y0qemSY5XBgseXxE-310" value="" style="shape=tableRow;horizontal=0;startSize=0;swimlaneHead=0;swimlaneBody=0;fillColor=none;collapsible=0;dropTarget=0;points=[[0,0.5],[1,0.5]];portConstraint=eastwest;top=0;left=0;right=0;bottom=1;align=center;fontSize=13;" parent="4np4y0qemSY5XBgseXxE-305" vertex="1">
          <mxGeometry y="59" width="260" height="30" as="geometry" />
        </mxCell>
        <mxCell id="4np4y0qemSY5XBgseXxE-311" value="" style="shape=partialRectangle;connectable=0;fillColor=none;top=1;left=0;bottom=1;right=0;fontStyle=0;overflow=hidden;whiteSpace=wrap;html=1;strokeWidth=1;fontSize=13;" parent="4np4y0qemSY5XBgseXxE-310" vertex="1">
          <mxGeometry width="30" height="30" as="geometry">
            <mxRectangle width="30" height="30" as="alternateBounds" />
          </mxGeometry>
        </mxCell>
        <mxCell id="4np4y0qemSY5XBgseXxE-312" value="name" style="shape=partialRectangle;connectable=0;fillColor=none;top=1;left=0;bottom=1;right=0;align=center;spacingLeft=6;fontStyle=0;overflow=hidden;whiteSpace=wrap;html=1;strokeWidth=1;fontSize=13;" parent="4np4y0qemSY5XBgseXxE-310" vertex="1">
          <mxGeometry x="30" width="130" height="30" as="geometry">
            <mxRectangle width="130" height="30" as="alternateBounds" />
          </mxGeometry>
        </mxCell>
        <mxCell id="4np4y0qemSY5XBgseXxE-313" value="&lt;span style=&quot;color: rgb(0, 0, 0); font-family: Helvetica; font-size: 13px; font-style: normal; font-variant-ligatures: normal; font-variant-caps: normal; font-weight: 400; letter-spacing: normal; orphans: 2; text-indent: 0px; text-transform: none; widows: 2; word-spacing: 0px; -webkit-text-stroke-width: 0px; white-space: normal; background-color: rgb(251, 251, 251); text-decoration-thickness: initial; text-decoration-style: initial; text-decoration-color: initial; float: none; display: inline !important;&quot;&gt;VARCHAR(100)&lt;/span&gt;" style="shape=partialRectangle;connectable=0;fillColor=none;top=1;left=0;bottom=1;right=0;align=center;spacingLeft=6;fontStyle=0;overflow=hidden;whiteSpace=wrap;html=1;strokeWidth=1;fontSize=13;" parent="4np4y0qemSY5XBgseXxE-310" vertex="1">
          <mxGeometry x="160" width="100" height="30" as="geometry">
            <mxRectangle width="100" height="30" as="alternateBounds" />
          </mxGeometry>
        </mxCell>
        <mxCell id="4np4y0qemSY5XBgseXxE-314" value="" style="shape=tableRow;horizontal=0;startSize=0;swimlaneHead=0;swimlaneBody=0;fillColor=none;collapsible=0;dropTarget=0;points=[[0,0.5],[1,0.5]];portConstraint=eastwest;top=0;left=0;right=0;bottom=0;fontStyle=1;fontSize=13;" parent="4np4y0qemSY5XBgseXxE-305" vertex="1">
          <mxGeometry y="89" width="260" height="30" as="geometry" />
        </mxCell>
        <mxCell id="4np4y0qemSY5XBgseXxE-315" value="" style="shape=partialRectangle;connectable=0;fillColor=none;top=0;left=0;bottom=0;right=0;editable=1;overflow=hidden;whiteSpace=wrap;html=1;fontStyle=0;fontSize=13;" parent="4np4y0qemSY5XBgseXxE-314" vertex="1">
          <mxGeometry width="30" height="30" as="geometry">
            <mxRectangle width="30" height="30" as="alternateBounds" />
          </mxGeometry>
        </mxCell>
        <mxCell id="4np4y0qemSY5XBgseXxE-316" value="begin_date" style="shape=partialRectangle;connectable=0;fillColor=none;top=0;left=0;bottom=0;right=0;align=center;spacingLeft=6;overflow=hidden;whiteSpace=wrap;html=1;fontStyle=0;fontSize=13;" parent="4np4y0qemSY5XBgseXxE-314" vertex="1">
          <mxGeometry x="30" width="130" height="30" as="geometry">
            <mxRectangle width="130" height="30" as="alternateBounds" />
          </mxGeometry>
        </mxCell>
        <mxCell id="4np4y0qemSY5XBgseXxE-317" value="&lt;div style=&quot;font-size: 13px;&quot;&gt;DATATIME&lt;br style=&quot;font-size: 13px;&quot;&gt;&lt;/div&gt;" style="shape=partialRectangle;connectable=0;fillColor=none;top=0;left=0;bottom=0;right=0;align=center;spacingLeft=6;overflow=hidden;whiteSpace=wrap;html=1;fontStyle=0;fontSize=13;" parent="4np4y0qemSY5XBgseXxE-314" vertex="1">
          <mxGeometry x="160" width="100" height="30" as="geometry">
            <mxRectangle width="100" height="30" as="alternateBounds" />
          </mxGeometry>
        </mxCell>
        <mxCell id="4np4y0qemSY5XBgseXxE-318" value="" style="shape=tableRow;horizontal=0;startSize=0;swimlaneHead=0;swimlaneBody=0;fillColor=none;collapsible=0;dropTarget=0;points=[[0,0.5],[1,0.5]];portConstraint=eastwest;top=0;left=0;right=0;bottom=1;fontSize=13;" parent="4np4y0qemSY5XBgseXxE-305" vertex="1">
          <mxGeometry y="119" width="260" height="30" as="geometry" />
        </mxCell>
        <mxCell id="4np4y0qemSY5XBgseXxE-319" value="" style="shape=partialRectangle;connectable=0;fillColor=none;top=1;left=0;bottom=1;right=0;fontStyle=0;overflow=hidden;whiteSpace=wrap;html=1;strokeWidth=1;fontSize=13;" parent="4np4y0qemSY5XBgseXxE-318" vertex="1">
          <mxGeometry width="30" height="30" as="geometry">
            <mxRectangle width="30" height="30" as="alternateBounds" />
          </mxGeometry>
        </mxCell>
        <mxCell id="4np4y0qemSY5XBgseXxE-320" value="end_date" style="shape=partialRectangle;connectable=0;fillColor=none;top=1;left=0;bottom=1;right=0;align=center;spacingLeft=6;fontStyle=0;overflow=hidden;whiteSpace=wrap;html=1;strokeWidth=1;fontSize=13;" parent="4np4y0qemSY5XBgseXxE-318" vertex="1">
          <mxGeometry x="30" width="130" height="30" as="geometry">
            <mxRectangle width="130" height="30" as="alternateBounds" />
          </mxGeometry>
        </mxCell>
        <mxCell id="4np4y0qemSY5XBgseXxE-321" value="DATATIME" style="shape=partialRectangle;connectable=0;fillColor=none;top=1;left=0;bottom=1;right=0;align=center;spacingLeft=6;fontStyle=0;overflow=hidden;whiteSpace=wrap;html=1;strokeWidth=1;fontSize=13;" parent="4np4y0qemSY5XBgseXxE-318" vertex="1">
          <mxGeometry x="160" width="100" height="30" as="geometry">
            <mxRectangle width="100" height="30" as="alternateBounds" />
          </mxGeometry>
        </mxCell>
        <mxCell id="4np4y0qemSY5XBgseXxE-322" value="" style="shape=tableRow;horizontal=0;startSize=0;swimlaneHead=0;swimlaneBody=0;fillColor=none;collapsible=0;dropTarget=0;points=[[0,0.5],[1,0.5]];portConstraint=eastwest;top=0;left=0;right=0;bottom=1;fontSize=13;" parent="4np4y0qemSY5XBgseXxE-305" vertex="1">
          <mxGeometry y="149" width="260" height="30" as="geometry" />
        </mxCell>
        <mxCell id="4np4y0qemSY5XBgseXxE-323" value="" style="shape=partialRectangle;connectable=0;fillColor=none;top=1;left=0;bottom=1;right=0;fontStyle=0;overflow=hidden;whiteSpace=wrap;html=1;strokeWidth=1;fontSize=13;" parent="4np4y0qemSY5XBgseXxE-322" vertex="1">
          <mxGeometry width="30" height="30" as="geometry">
            <mxRectangle width="30" height="30" as="alternateBounds" />
          </mxGeometry>
        </mxCell>
        <mxCell id="4np4y0qemSY5XBgseXxE-324" value="organization" style="shape=partialRectangle;connectable=0;fillColor=none;top=1;left=0;bottom=1;right=0;align=center;spacingLeft=6;fontStyle=0;overflow=hidden;whiteSpace=wrap;html=1;strokeWidth=1;fontSize=13;" parent="4np4y0qemSY5XBgseXxE-322" vertex="1">
          <mxGeometry x="30" width="130" height="30" as="geometry">
            <mxRectangle width="130" height="30" as="alternateBounds" />
          </mxGeometry>
        </mxCell>
        <mxCell id="4np4y0qemSY5XBgseXxE-325" value="VARCHAR(100)" style="shape=partialRectangle;connectable=0;fillColor=none;top=1;left=0;bottom=1;right=0;align=center;spacingLeft=6;fontStyle=0;overflow=hidden;whiteSpace=wrap;html=1;strokeWidth=1;fontSize=13;" parent="4np4y0qemSY5XBgseXxE-322" vertex="1">
          <mxGeometry x="160" width="100" height="30" as="geometry">
            <mxRectangle width="100" height="30" as="alternateBounds" />
          </mxGeometry>
        </mxCell>
        <mxCell id="4np4y0qemSY5XBgseXxE-326" value="" style="shape=tableRow;horizontal=0;startSize=0;swimlaneHead=0;swimlaneBody=0;fillColor=none;collapsible=0;dropTarget=0;points=[[0,0.5],[1,0.5]];portConstraint=eastwest;top=0;left=0;right=0;bottom=1;fontSize=13;" parent="4np4y0qemSY5XBgseXxE-305" vertex="1">
          <mxGeometry y="179" width="260" height="30" as="geometry" />
        </mxCell>
        <mxCell id="4np4y0qemSY5XBgseXxE-327" value="" style="shape=partialRectangle;connectable=0;fillColor=none;top=1;left=0;bottom=1;right=0;fontStyle=0;overflow=hidden;whiteSpace=wrap;html=1;strokeWidth=1;fontSize=13;" parent="4np4y0qemSY5XBgseXxE-326" vertex="1">
          <mxGeometry width="30" height="30" as="geometry">
            <mxRectangle width="30" height="30" as="alternateBounds" />
          </mxGeometry>
        </mxCell>
        <mxCell id="4np4y0qemSY5XBgseXxE-328" value="area" style="shape=partialRectangle;connectable=0;fillColor=none;top=1;left=0;bottom=1;right=0;align=center;spacingLeft=6;fontStyle=0;overflow=hidden;whiteSpace=wrap;html=1;strokeWidth=1;fontSize=13;" parent="4np4y0qemSY5XBgseXxE-326" vertex="1">
          <mxGeometry x="30" width="130" height="30" as="geometry">
            <mxRectangle width="130" height="30" as="alternateBounds" />
          </mxGeometry>
        </mxCell>
        <mxCell id="4np4y0qemSY5XBgseXxE-329" value="SMALLINT" style="shape=partialRectangle;connectable=0;fillColor=none;top=1;left=0;bottom=1;right=0;align=center;spacingLeft=6;fontStyle=0;overflow=hidden;whiteSpace=wrap;html=1;strokeWidth=1;fontSize=13;" parent="4np4y0qemSY5XBgseXxE-326" vertex="1">
          <mxGeometry x="160" width="100" height="30" as="geometry">
            <mxRectangle width="100" height="30" as="alternateBounds" />
          </mxGeometry>
        </mxCell>
        <mxCell id="4np4y0qemSY5XBgseXxE-330" value="" style="shape=tableRow;horizontal=0;startSize=0;swimlaneHead=0;swimlaneBody=0;fillColor=none;collapsible=0;dropTarget=0;points=[[0,0.5],[1,0.5]];portConstraint=eastwest;top=0;left=0;right=0;bottom=1;fontSize=13;" parent="4np4y0qemSY5XBgseXxE-305" vertex="1">
          <mxGeometry y="209" width="260" height="30" as="geometry" />
        </mxCell>
        <mxCell id="4np4y0qemSY5XBgseXxE-331" value="" style="shape=partialRectangle;connectable=0;fillColor=none;top=1;left=0;bottom=1;right=0;fontStyle=0;overflow=hidden;whiteSpace=wrap;html=1;strokeWidth=1;fontSize=13;" parent="4np4y0qemSY5XBgseXxE-330" vertex="1">
          <mxGeometry width="30" height="30" as="geometry">
            <mxRectangle width="30" height="30" as="alternateBounds" />
          </mxGeometry>
        </mxCell>
        <mxCell id="4np4y0qemSY5XBgseXxE-332" value="status" style="shape=partialRectangle;connectable=0;fillColor=none;top=1;left=0;bottom=1;right=0;align=center;spacingLeft=6;fontStyle=0;overflow=hidden;whiteSpace=wrap;html=1;strokeWidth=1;fontSize=13;" parent="4np4y0qemSY5XBgseXxE-330" vertex="1">
          <mxGeometry x="30" width="130" height="30" as="geometry">
            <mxRectangle width="130" height="30" as="alternateBounds" />
          </mxGeometry>
        </mxCell>
        <mxCell id="4np4y0qemSY5XBgseXxE-333" value="VARCHAR(12)" style="shape=partialRectangle;connectable=0;fillColor=none;top=1;left=0;bottom=1;right=0;align=center;spacingLeft=6;fontStyle=0;overflow=hidden;whiteSpace=wrap;html=1;strokeWidth=1;fontSize=13;" parent="4np4y0qemSY5XBgseXxE-330" vertex="1">
          <mxGeometry x="160" width="100" height="30" as="geometry">
            <mxRectangle width="100" height="30" as="alternateBounds" />
          </mxGeometry>
        </mxCell>
        <mxCell id="4np4y0qemSY5XBgseXxE-334" value="" style="shape=tableRow;horizontal=0;startSize=0;swimlaneHead=0;swimlaneBody=0;fillColor=none;collapsible=0;dropTarget=0;points=[[0,0.5],[1,0.5]];portConstraint=eastwest;top=0;left=0;right=0;bottom=1;fontSize=13;" parent="4np4y0qemSY5XBgseXxE-305" vertex="1">
          <mxGeometry y="239" width="260" height="30" as="geometry" />
        </mxCell>
        <mxCell id="4np4y0qemSY5XBgseXxE-335" value="" style="shape=partialRectangle;connectable=0;fillColor=none;top=1;left=0;bottom=1;right=0;fontStyle=0;overflow=hidden;whiteSpace=wrap;html=1;strokeWidth=1;fontSize=13;" parent="4np4y0qemSY5XBgseXxE-334" vertex="1">
          <mxGeometry width="30" height="30" as="geometry">
            <mxRectangle width="30" height="30" as="alternateBounds" />
          </mxGeometry>
        </mxCell>
        <mxCell id="4np4y0qemSY5XBgseXxE-336" value="recommended_count" style="shape=partialRectangle;connectable=0;fillColor=none;top=1;left=0;bottom=1;right=0;align=center;spacingLeft=6;fontStyle=0;overflow=hidden;whiteSpace=wrap;html=1;strokeWidth=1;fontSize=13;" parent="4np4y0qemSY5XBgseXxE-334" vertex="1">
          <mxGeometry x="30" width="130" height="30" as="geometry">
            <mxRectangle width="130" height="30" as="alternateBounds" />
          </mxGeometry>
        </mxCell>
        <mxCell id="4np4y0qemSY5XBgseXxE-337" value="SMALLINT" style="shape=partialRectangle;connectable=0;fillColor=none;top=1;left=0;bottom=1;right=0;align=center;spacingLeft=6;fontStyle=0;overflow=hidden;whiteSpace=wrap;html=1;strokeWidth=1;fontSize=13;" parent="4np4y0qemSY5XBgseXxE-334" vertex="1">
          <mxGeometry x="160" width="100" height="30" as="geometry">
            <mxRectangle width="100" height="30" as="alternateBounds" />
          </mxGeometry>
        </mxCell>
        <mxCell id="4np4y0qemSY5XBgseXxE-338" value="" style="shape=tableRow;horizontal=0;startSize=0;swimlaneHead=0;swimlaneBody=0;fillColor=none;collapsible=0;dropTarget=0;points=[[0,0.5],[1,0.5]];portConstraint=eastwest;top=0;left=0;right=0;bottom=1;fontSize=13;" parent="4np4y0qemSY5XBgseXxE-305" vertex="1">
          <mxGeometry y="269" width="260" height="30" as="geometry" />
        </mxCell>
        <mxCell id="4np4y0qemSY5XBgseXxE-339" value="" style="shape=partialRectangle;connectable=0;fillColor=none;top=1;left=0;bottom=1;right=0;fontStyle=0;overflow=hidden;whiteSpace=wrap;html=1;strokeWidth=1;fontSize=13;" parent="4np4y0qemSY5XBgseXxE-338" vertex="1">
          <mxGeometry width="30" height="30" as="geometry">
            <mxRectangle width="30" height="30" as="alternateBounds" />
          </mxGeometry>
        </mxCell>
        <mxCell id="4np4y0qemSY5XBgseXxE-340" value="description" style="shape=partialRectangle;connectable=0;fillColor=none;top=1;left=0;bottom=1;right=0;align=center;spacingLeft=6;fontStyle=0;overflow=hidden;whiteSpace=wrap;html=1;strokeWidth=1;fontSize=13;" parent="4np4y0qemSY5XBgseXxE-338" vertex="1">
          <mxGeometry x="30" width="130" height="30" as="geometry">
            <mxRectangle width="130" height="30" as="alternateBounds" />
          </mxGeometry>
        </mxCell>
        <mxCell id="4np4y0qemSY5XBgseXxE-341" value="VARCHAR(30&lt;span style=&quot;background-color: initial; font-size: 13px;&quot;&gt;0)&lt;/span&gt;" style="shape=partialRectangle;connectable=0;fillColor=none;top=1;left=0;bottom=1;right=0;align=center;spacingLeft=6;fontStyle=0;overflow=hidden;whiteSpace=wrap;html=1;strokeWidth=1;fontSize=13;" parent="4np4y0qemSY5XBgseXxE-338" vertex="1">
          <mxGeometry x="160" width="100" height="30" as="geometry">
            <mxRectangle width="100" height="30" as="alternateBounds" />
          </mxGeometry>
        </mxCell>
        <mxCell id="4np4y0qemSY5XBgseXxE-400" value="" style="shape=tableRow;horizontal=0;startSize=0;swimlaneHead=0;swimlaneBody=0;fillColor=none;collapsible=0;dropTarget=0;points=[[0,0.5],[1,0.5]];portConstraint=eastwest;top=0;left=0;right=0;bottom=1;fontSize=13;" parent="4np4y0qemSY5XBgseXxE-305" vertex="1">
          <mxGeometry y="299" width="260" height="30" as="geometry" />
        </mxCell>
        <mxCell id="4np4y0qemSY5XBgseXxE-401" value="&lt;i style=&quot;font-size: 13px;&quot;&gt;FK&lt;/i&gt;" style="shape=partialRectangle;connectable=0;fillColor=none;top=1;left=0;bottom=1;right=0;fontStyle=0;overflow=hidden;whiteSpace=wrap;html=1;strokeWidth=1;fontSize=13;" parent="4np4y0qemSY5XBgseXxE-400" vertex="1">
          <mxGeometry width="30" height="30" as="geometry">
            <mxRectangle width="30" height="30" as="alternateBounds" />
          </mxGeometry>
        </mxCell>
        <mxCell id="4np4y0qemSY5XBgseXxE-402" value="&lt;i style=&quot;font-size: 13px;&quot;&gt;city_id&lt;/i&gt;" style="shape=partialRectangle;connectable=0;fillColor=none;top=1;left=0;bottom=1;right=0;align=center;spacingLeft=6;fontStyle=0;overflow=hidden;whiteSpace=wrap;html=1;strokeWidth=1;fontSize=13;" parent="4np4y0qemSY5XBgseXxE-400" vertex="1">
          <mxGeometry x="30" width="130" height="30" as="geometry">
            <mxRectangle width="130" height="30" as="alternateBounds" />
          </mxGeometry>
        </mxCell>
        <mxCell id="4np4y0qemSY5XBgseXxE-403" value="&lt;i style=&quot;font-size: 13px;&quot;&gt;INT&lt;/i&gt;" style="shape=partialRectangle;connectable=0;fillColor=none;top=1;left=0;bottom=1;right=0;align=center;spacingLeft=6;fontStyle=0;overflow=hidden;whiteSpace=wrap;html=1;strokeWidth=1;fontSize=13;" parent="4np4y0qemSY5XBgseXxE-400" vertex="1">
          <mxGeometry x="160" width="100" height="30" as="geometry">
            <mxRectangle width="100" height="30" as="alternateBounds" />
          </mxGeometry>
        </mxCell>
        <mxCell id="4np4y0qemSY5XBgseXxE-404" value="" style="shape=tableRow;horizontal=0;startSize=0;swimlaneHead=0;swimlaneBody=0;fillColor=none;collapsible=0;dropTarget=0;points=[[0,0.5],[1,0.5]];portConstraint=eastwest;top=0;left=0;right=0;bottom=1;fontSize=13;" parent="4np4y0qemSY5XBgseXxE-305" vertex="1">
          <mxGeometry y="329" width="260" height="30" as="geometry" />
        </mxCell>
        <mxCell id="4np4y0qemSY5XBgseXxE-405" value="&lt;i style=&quot;font-size: 13px;&quot;&gt;FK&lt;/i&gt;" style="shape=partialRectangle;connectable=0;fillColor=none;top=1;left=0;bottom=1;right=0;fontStyle=0;overflow=hidden;whiteSpace=wrap;html=1;strokeWidth=1;fontSize=13;" parent="4np4y0qemSY5XBgseXxE-404" vertex="1">
          <mxGeometry width="30" height="30" as="geometry">
            <mxRectangle width="30" height="30" as="alternateBounds" />
          </mxGeometry>
        </mxCell>
        <mxCell id="4np4y0qemSY5XBgseXxE-406" value="&lt;i style=&quot;font-size: 13px;&quot;&gt;location_id&lt;/i&gt;" style="shape=partialRectangle;connectable=0;fillColor=none;top=1;left=0;bottom=1;right=0;align=center;spacingLeft=6;fontStyle=0;overflow=hidden;whiteSpace=wrap;html=1;strokeWidth=1;fontSize=13;" parent="4np4y0qemSY5XBgseXxE-404" vertex="1">
          <mxGeometry x="30" width="130" height="30" as="geometry">
            <mxRectangle width="130" height="30" as="alternateBounds" />
          </mxGeometry>
        </mxCell>
        <mxCell id="4np4y0qemSY5XBgseXxE-407" value="&lt;i style=&quot;font-size: 13px;&quot;&gt;INT&lt;/i&gt;" style="shape=partialRectangle;connectable=0;fillColor=none;top=1;left=0;bottom=1;right=0;align=center;spacingLeft=6;fontStyle=0;overflow=hidden;whiteSpace=wrap;html=1;strokeWidth=1;fontSize=13;" parent="4np4y0qemSY5XBgseXxE-404" vertex="1">
          <mxGeometry x="160" width="100" height="30" as="geometry">
            <mxRectangle width="100" height="30" as="alternateBounds" />
          </mxGeometry>
        </mxCell>
        <mxCell id="4np4y0qemSY5XBgseXxE-354" value="&lt;span style=&quot;font-size: 13px;&quot;&gt;&lt;b style=&quot;font-size: 13px;&quot;&gt;City&lt;/b&gt;&lt;/span&gt;" style="shape=table;startSize=30;container=1;collapsible=1;childLayout=tableLayout;fixedRows=1;rowLines=0;align=center;resizeLast=1;html=1;resizeLastRow=0;flipH=0;flipV=0;direction=east;verticalAlign=middle;fontSize=13;" parent="WIyWlLk6GJQsqaUBKTNV-1" vertex="1">
          <mxGeometry x="400" y="770" width="213" height="89" as="geometry" />
        </mxCell>
        <mxCell id="4np4y0qemSY5XBgseXxE-355" value="" style="shape=tableRow;horizontal=0;startSize=0;swimlaneHead=0;swimlaneBody=0;fillColor=none;collapsible=0;dropTarget=0;points=[[0,0.5],[1,0.5]];portConstraint=eastwest;top=0;left=0;right=0;bottom=0;align=center;fontSize=13;" parent="4np4y0qemSY5XBgseXxE-354" vertex="1">
          <mxGeometry y="30" width="213" height="29" as="geometry" />
        </mxCell>
        <mxCell id="4np4y0qemSY5XBgseXxE-356" value="PK" style="shape=partialRectangle;connectable=0;fillColor=none;top=1;left=0;bottom=1;right=0;editable=1;overflow=hidden;strokeWidth=1;fontStyle=3;fontSize=13;" parent="4np4y0qemSY5XBgseXxE-355" vertex="1">
          <mxGeometry width="30" height="29" as="geometry">
            <mxRectangle width="30" height="29" as="alternateBounds" />
          </mxGeometry>
        </mxCell>
        <mxCell id="4np4y0qemSY5XBgseXxE-357" value="city_id" style="shape=partialRectangle;connectable=0;fillColor=none;top=1;left=0;bottom=1;right=0;align=center;spacingLeft=6;overflow=hidden;strokeWidth=1;fontStyle=3;fontSize=13;" parent="4np4y0qemSY5XBgseXxE-355" vertex="1">
          <mxGeometry x="30" width="83" height="29" as="geometry">
            <mxRectangle width="83" height="29" as="alternateBounds" />
          </mxGeometry>
        </mxCell>
        <mxCell id="4np4y0qemSY5XBgseXxE-358" value="INT" style="shape=partialRectangle;connectable=0;fillColor=none;top=1;left=0;bottom=1;right=0;align=center;spacingLeft=6;overflow=hidden;strokeWidth=1;fontStyle=3;fontSize=13;" parent="4np4y0qemSY5XBgseXxE-355" vertex="1">
          <mxGeometry x="113" width="100" height="29" as="geometry">
            <mxRectangle width="100" height="29" as="alternateBounds" />
          </mxGeometry>
        </mxCell>
        <mxCell id="4np4y0qemSY5XBgseXxE-387" value="" style="shape=tableRow;horizontal=0;startSize=0;swimlaneHead=0;swimlaneBody=0;fillColor=none;collapsible=0;dropTarget=0;points=[[0,0.5],[1,0.5]];portConstraint=eastwest;top=0;left=0;right=0;bottom=1;fontSize=13;" parent="4np4y0qemSY5XBgseXxE-354" vertex="1">
          <mxGeometry y="59" width="213" height="30" as="geometry" />
        </mxCell>
        <mxCell id="4np4y0qemSY5XBgseXxE-388" value="" style="shape=partialRectangle;connectable=0;fillColor=none;top=1;left=0;bottom=1;right=0;fontStyle=0;overflow=hidden;whiteSpace=wrap;html=1;strokeWidth=1;fontSize=13;" parent="4np4y0qemSY5XBgseXxE-387" vertex="1">
          <mxGeometry width="30" height="30" as="geometry">
            <mxRectangle width="30" height="30" as="alternateBounds" />
          </mxGeometry>
        </mxCell>
        <mxCell id="4np4y0qemSY5XBgseXxE-389" value="name" style="shape=partialRectangle;connectable=0;fillColor=none;top=1;left=0;bottom=1;right=0;align=center;spacingLeft=6;fontStyle=0;overflow=hidden;whiteSpace=wrap;html=1;strokeWidth=1;fontSize=13;" parent="4np4y0qemSY5XBgseXxE-387" vertex="1">
          <mxGeometry x="30" width="83" height="30" as="geometry">
            <mxRectangle width="83" height="30" as="alternateBounds" />
          </mxGeometry>
        </mxCell>
        <mxCell id="4np4y0qemSY5XBgseXxE-390" value="VARCHAR(10&lt;span style=&quot;background-color: initial; font-size: 13px;&quot;&gt;0)&lt;/span&gt;" style="shape=partialRectangle;connectable=0;fillColor=none;top=1;left=0;bottom=1;right=0;align=center;spacingLeft=6;fontStyle=0;overflow=hidden;whiteSpace=wrap;html=1;strokeWidth=1;fontSize=13;" parent="4np4y0qemSY5XBgseXxE-387" vertex="1">
          <mxGeometry x="113" width="100" height="30" as="geometry">
            <mxRectangle width="100" height="30" as="alternateBounds" />
          </mxGeometry>
        </mxCell>
        <mxCell id="4np4y0qemSY5XBgseXxE-454" value="&lt;span style=&quot;font-size: 13px;&quot;&gt;&lt;font style=&quot;font-size: 13px;&quot;&gt;CleanDay_Tag&lt;/font&gt;&lt;/span&gt;" style="shape=table;startSize=30;container=1;collapsible=1;childLayout=tableLayout;fixedRows=1;rowLines=0;fontStyle=1;align=center;resizeLast=1;html=1;fontSize=13;" parent="WIyWlLk6GJQsqaUBKTNV-1" vertex="1">
          <mxGeometry x="1170" y="10" width="160" height="90" as="geometry" />
        </mxCell>
        <mxCell id="4np4y0qemSY5XBgseXxE-455" value="" style="shape=tableRow;horizontal=0;startSize=0;swimlaneHead=0;swimlaneBody=0;fillColor=none;collapsible=0;dropTarget=0;points=[[0,0.5],[1,0.5]];portConstraint=eastwest;top=0;left=0;right=0;bottom=1;fontSize=13;" parent="4np4y0qemSY5XBgseXxE-454" vertex="1">
          <mxGeometry y="30" width="160" height="30" as="geometry" />
        </mxCell>
        <mxCell id="4np4y0qemSY5XBgseXxE-456" value="PK, FK" style="shape=partialRectangle;connectable=0;fillColor=none;top=1;left=0;bottom=1;right=0;fontStyle=3;overflow=hidden;whiteSpace=wrap;html=1;strokeWidth=1;fontSize=13;" parent="4np4y0qemSY5XBgseXxE-455" vertex="1">
          <mxGeometry width="30" height="30" as="geometry">
            <mxRectangle width="30" height="30" as="alternateBounds" />
          </mxGeometry>
        </mxCell>
        <mxCell id="4np4y0qemSY5XBgseXxE-457" value="cleanday_id" style="shape=partialRectangle;connectable=0;fillColor=none;top=1;left=0;bottom=1;right=0;align=center;spacingLeft=6;fontStyle=3;overflow=hidden;whiteSpace=wrap;html=1;strokeWidth=1;fontSize=13;" parent="4np4y0qemSY5XBgseXxE-455" vertex="1">
          <mxGeometry x="30" width="90" height="30" as="geometry">
            <mxRectangle width="90" height="30" as="alternateBounds" />
          </mxGeometry>
        </mxCell>
        <mxCell id="4np4y0qemSY5XBgseXxE-458" value="INT" style="shape=partialRectangle;connectable=0;fillColor=none;top=1;left=0;bottom=1;right=0;align=center;spacingLeft=6;fontStyle=3;overflow=hidden;whiteSpace=wrap;html=1;strokeWidth=1;fontSize=13;" parent="4np4y0qemSY5XBgseXxE-455" vertex="1">
          <mxGeometry x="120" width="40" height="30" as="geometry">
            <mxRectangle width="40" height="30" as="alternateBounds" />
          </mxGeometry>
        </mxCell>
        <mxCell id="4np4y0qemSY5XBgseXxE-459" value="" style="shape=tableRow;horizontal=0;startSize=0;swimlaneHead=0;swimlaneBody=0;fillColor=none;collapsible=0;dropTarget=0;points=[[0,0.5],[1,0.5]];portConstraint=eastwest;top=0;left=0;right=0;bottom=1;fontSize=13;" parent="4np4y0qemSY5XBgseXxE-454" vertex="1">
          <mxGeometry y="60" width="160" height="30" as="geometry" />
        </mxCell>
        <mxCell id="4np4y0qemSY5XBgseXxE-460" value="PK, FK" style="shape=partialRectangle;connectable=0;fillColor=none;top=1;left=0;bottom=1;right=0;fontStyle=3;overflow=hidden;whiteSpace=wrap;html=1;strokeWidth=1;fontSize=13;" parent="4np4y0qemSY5XBgseXxE-459" vertex="1">
          <mxGeometry width="30" height="30" as="geometry">
            <mxRectangle width="30" height="30" as="alternateBounds" />
          </mxGeometry>
        </mxCell>
        <mxCell id="4np4y0qemSY5XBgseXxE-461" value="tag&lt;span style=&quot;background-color: initial; font-size: 13px;&quot;&gt;_id&lt;/span&gt;" style="shape=partialRectangle;connectable=0;fillColor=none;top=1;left=0;bottom=1;right=0;align=center;spacingLeft=6;fontStyle=3;overflow=hidden;whiteSpace=wrap;html=1;strokeWidth=1;fontSize=13;" parent="4np4y0qemSY5XBgseXxE-459" vertex="1">
          <mxGeometry x="30" width="90" height="30" as="geometry">
            <mxRectangle width="90" height="30" as="alternateBounds" />
          </mxGeometry>
        </mxCell>
        <mxCell id="4np4y0qemSY5XBgseXxE-462" value="INT" style="shape=partialRectangle;connectable=0;fillColor=none;top=1;left=0;bottom=1;right=0;align=center;spacingLeft=6;fontStyle=3;overflow=hidden;whiteSpace=wrap;html=1;strokeWidth=1;fontSize=13;" parent="4np4y0qemSY5XBgseXxE-459" vertex="1">
          <mxGeometry x="120" width="40" height="30" as="geometry">
            <mxRectangle width="40" height="30" as="alternateBounds" />
          </mxGeometry>
        </mxCell>
        <mxCell id="4np4y0qemSY5XBgseXxE-463" style="edgeStyle=orthogonalEdgeStyle;rounded=0;orthogonalLoop=1;jettySize=auto;html=1;entryX=0;entryY=0.5;entryDx=0;entryDy=0;fontFamily=Helvetica;fontSize=13;fontColor=default;endArrow=ERzeroToMany;endFill=0;startArrow=ERmandOne;startFill=0;exitX=0.5;exitY=0;exitDx=0;exitDy=0;" parent="WIyWlLk6GJQsqaUBKTNV-1" source="4np4y0qemSY5XBgseXxE-305" target="4np4y0qemSY5XBgseXxE-455" edge="1">
          <mxGeometry relative="1" as="geometry" />
        </mxCell>
        <mxCell id="4np4y0qemSY5XBgseXxE-617" value="Has tag" style="edgeLabel;html=1;align=center;verticalAlign=middle;resizable=0;points=[];strokeColor=default;fontFamily=Helvetica;fontSize=13;fontColor=default;fillColor=none;" parent="4np4y0qemSY5XBgseXxE-463" vertex="1" connectable="0">
          <mxGeometry x="-0.1645" relative="1" as="geometry">
            <mxPoint x="36" as="offset" />
          </mxGeometry>
        </mxCell>
        <mxCell id="4np4y0qemSY5XBgseXxE-474" style="edgeStyle=orthogonalEdgeStyle;rounded=0;orthogonalLoop=1;jettySize=auto;html=1;entryX=1;entryY=0.5;entryDx=0;entryDy=0;fontFamily=Helvetica;fontSize=13;fontColor=default;endArrow=ERmandOne;endFill=0;startArrow=ERzeroToMany;startFill=0;" parent="WIyWlLk6GJQsqaUBKTNV-1" source="4np4y0qemSY5XBgseXxE-400" target="4np4y0qemSY5XBgseXxE-355" edge="1">
          <mxGeometry relative="1" as="geometry" />
        </mxCell>
        <mxCell id="4np4y0qemSY5XBgseXxE-624" value="Takes place in" style="edgeLabel;html=1;align=center;verticalAlign=middle;resizable=0;points=[];strokeColor=default;fontFamily=Helvetica;fontSize=13;fontColor=default;fillColor=none;" parent="4np4y0qemSY5XBgseXxE-474" vertex="1" connectable="0">
          <mxGeometry x="0.0316" relative="1" as="geometry">
            <mxPoint as="offset" />
          </mxGeometry>
        </mxCell>
        <mxCell id="4np4y0qemSY5XBgseXxE-475" style="edgeStyle=orthogonalEdgeStyle;rounded=0;orthogonalLoop=1;jettySize=auto;html=1;entryX=1;entryY=0.5;entryDx=0;entryDy=0;fontFamily=Helvetica;fontSize=13;fontColor=default;endArrow=ERzeroToMany;endFill=0;startArrow=ERmandOne;startFill=0;exitX=0;exitY=0.5;exitDx=0;exitDy=0;" parent="WIyWlLk6GJQsqaUBKTNV-1" source="4np4y0qemSY5XBgseXxE-481" target="4np4y0qemSY5XBgseXxE-459" edge="1">
          <mxGeometry relative="1" as="geometry">
            <mxPoint x="1370" y="235" as="sourcePoint" />
          </mxGeometry>
        </mxCell>
        <mxCell id="4np4y0qemSY5XBgseXxE-618" value="Refers to cleaning day" style="edgeLabel;html=1;align=center;verticalAlign=middle;resizable=0;points=[];strokeColor=default;fontFamily=Helvetica;fontSize=13;fontColor=default;fillColor=none;" parent="4np4y0qemSY5XBgseXxE-475" vertex="1" connectable="0">
          <mxGeometry x="-0.0303" relative="1" as="geometry">
            <mxPoint as="offset" />
          </mxGeometry>
        </mxCell>
        <mxCell id="4np4y0qemSY5XBgseXxE-480" value="&lt;span style=&quot;font-size: 13px;&quot;&gt;&lt;font style=&quot;font-size: 13px;&quot;&gt;Tag&lt;/font&gt;&lt;/span&gt;" style="shape=table;startSize=30;container=1;collapsible=1;childLayout=tableLayout;fixedRows=1;rowLines=0;fontStyle=1;align=center;resizeLast=1;html=1;fontSize=13;" parent="WIyWlLk6GJQsqaUBKTNV-1" vertex="1">
          <mxGeometry x="1490" y="10" width="190" height="90" as="geometry" />
        </mxCell>
        <mxCell id="4np4y0qemSY5XBgseXxE-481" value="" style="shape=tableRow;horizontal=0;startSize=0;swimlaneHead=0;swimlaneBody=0;fillColor=none;collapsible=0;dropTarget=0;points=[[0,0.5],[1,0.5]];portConstraint=eastwest;top=0;left=0;right=0;bottom=1;fontSize=13;" parent="4np4y0qemSY5XBgseXxE-480" vertex="1">
          <mxGeometry y="30" width="190" height="30" as="geometry" />
        </mxCell>
        <mxCell id="4np4y0qemSY5XBgseXxE-482" value="PK" style="shape=partialRectangle;connectable=0;fillColor=none;top=1;left=0;bottom=1;right=0;fontStyle=3;overflow=hidden;whiteSpace=wrap;html=1;strokeWidth=1;fontSize=13;" parent="4np4y0qemSY5XBgseXxE-481" vertex="1">
          <mxGeometry width="30" height="30" as="geometry">
            <mxRectangle width="30" height="30" as="alternateBounds" />
          </mxGeometry>
        </mxCell>
        <mxCell id="4np4y0qemSY5XBgseXxE-483" value="tag_id" style="shape=partialRectangle;connectable=0;fillColor=none;top=1;left=0;bottom=1;right=0;align=center;spacingLeft=6;fontStyle=3;overflow=hidden;whiteSpace=wrap;html=1;strokeWidth=1;fontSize=13;" parent="4np4y0qemSY5XBgseXxE-481" vertex="1">
          <mxGeometry x="30" width="60" height="30" as="geometry">
            <mxRectangle width="60" height="30" as="alternateBounds" />
          </mxGeometry>
        </mxCell>
        <mxCell id="4np4y0qemSY5XBgseXxE-484" value="INT" style="shape=partialRectangle;connectable=0;fillColor=none;top=1;left=0;bottom=1;right=0;align=center;spacingLeft=6;fontStyle=3;overflow=hidden;whiteSpace=wrap;html=1;strokeWidth=1;fontSize=13;" parent="4np4y0qemSY5XBgseXxE-481" vertex="1">
          <mxGeometry x="90" width="100" height="30" as="geometry">
            <mxRectangle width="100" height="30" as="alternateBounds" />
          </mxGeometry>
        </mxCell>
        <mxCell id="4np4y0qemSY5XBgseXxE-485" value="" style="shape=tableRow;horizontal=0;startSize=0;swimlaneHead=0;swimlaneBody=0;fillColor=none;collapsible=0;dropTarget=0;points=[[0,0.5],[1,0.5]];portConstraint=eastwest;top=0;left=0;right=0;bottom=1;fontSize=13;" parent="4np4y0qemSY5XBgseXxE-480" vertex="1">
          <mxGeometry y="60" width="190" height="30" as="geometry" />
        </mxCell>
        <mxCell id="4np4y0qemSY5XBgseXxE-486" value="" style="shape=partialRectangle;connectable=0;fillColor=none;top=1;left=0;bottom=1;right=0;fontStyle=3;overflow=hidden;whiteSpace=wrap;html=1;strokeWidth=1;fontSize=13;" parent="4np4y0qemSY5XBgseXxE-485" vertex="1">
          <mxGeometry width="30" height="30" as="geometry">
            <mxRectangle width="30" height="30" as="alternateBounds" />
          </mxGeometry>
        </mxCell>
        <mxCell id="4np4y0qemSY5XBgseXxE-487" value="&lt;span style=&quot;font-style: normal; font-weight: 400; font-size: 13px;&quot;&gt;name&lt;/span&gt;" style="shape=partialRectangle;connectable=0;fillColor=none;top=1;left=0;bottom=1;right=0;align=center;spacingLeft=6;fontStyle=3;overflow=hidden;whiteSpace=wrap;html=1;strokeWidth=1;fontSize=13;" parent="4np4y0qemSY5XBgseXxE-485" vertex="1">
          <mxGeometry x="30" width="60" height="30" as="geometry">
            <mxRectangle width="60" height="30" as="alternateBounds" />
          </mxGeometry>
        </mxCell>
        <mxCell id="4np4y0qemSY5XBgseXxE-488" value="VARCHAR(20)" style="shape=partialRectangle;connectable=0;fillColor=none;top=1;left=0;bottom=1;right=0;align=center;spacingLeft=6;fontStyle=0;overflow=hidden;whiteSpace=wrap;html=1;strokeWidth=1;fontSize=13;" parent="4np4y0qemSY5XBgseXxE-485" vertex="1">
          <mxGeometry x="90" width="100" height="30" as="geometry">
            <mxRectangle width="100" height="30" as="alternateBounds" />
          </mxGeometry>
        </mxCell>
        <mxCell id="4np4y0qemSY5XBgseXxE-490" value="&lt;b style=&quot;font-size: 13px;&quot;&gt;&lt;font style=&quot;font-size: 13px;&quot;&gt;Location&lt;/font&gt;&lt;/b&gt;" style="shape=table;startSize=30;container=1;collapsible=1;childLayout=tableLayout;fixedRows=1;rowLines=0;fontStyle=0;align=center;resizeLast=1;html=1;fontSize=13;" parent="WIyWlLk6GJQsqaUBKTNV-1" vertex="1">
          <mxGeometry x="1310" y="160" width="239.99999999999977" height="120" as="geometry" />
        </mxCell>
        <mxCell id="4np4y0qemSY5XBgseXxE-491" value="" style="shape=tableRow;horizontal=0;startSize=0;swimlaneHead=0;swimlaneBody=0;fillColor=none;collapsible=0;dropTarget=0;points=[[0,0.5],[1,0.5]];portConstraint=eastwest;top=0;left=0;right=0;bottom=0;fontSize=13;" parent="4np4y0qemSY5XBgseXxE-490" vertex="1">
          <mxGeometry y="30" width="239.99999999999977" height="30" as="geometry" />
        </mxCell>
        <mxCell id="4np4y0qemSY5XBgseXxE-492" value="PK" style="shape=partialRectangle;connectable=0;fillColor=none;top=1;left=0;bottom=1;right=0;editable=1;overflow=hidden;strokeWidth=1;fontStyle=3;fontSize=13;" parent="4np4y0qemSY5XBgseXxE-491" vertex="1">
          <mxGeometry width="30" height="30" as="geometry">
            <mxRectangle width="30" height="30" as="alternateBounds" />
          </mxGeometry>
        </mxCell>
        <mxCell id="4np4y0qemSY5XBgseXxE-493" value="location_id" style="shape=partialRectangle;connectable=0;fillColor=none;top=1;left=0;bottom=1;right=0;align=center;spacingLeft=6;overflow=hidden;strokeWidth=1;fontStyle=3;fontSize=13;" parent="4np4y0qemSY5XBgseXxE-491" vertex="1">
          <mxGeometry x="30" width="99.99999999999977" height="30" as="geometry">
            <mxRectangle width="99.99999999999977" height="30" as="alternateBounds" />
          </mxGeometry>
        </mxCell>
        <mxCell id="4np4y0qemSY5XBgseXxE-494" value="INT" style="shape=partialRectangle;connectable=0;fillColor=none;top=1;left=0;bottom=1;right=0;align=center;spacingLeft=6;overflow=hidden;strokeWidth=1;fontStyle=3;fontSize=13;" parent="4np4y0qemSY5XBgseXxE-491" vertex="1">
          <mxGeometry x="129.99999999999977" width="110" height="30" as="geometry">
            <mxRectangle width="110" height="30" as="alternateBounds" />
          </mxGeometry>
        </mxCell>
        <mxCell id="4np4y0qemSY5XBgseXxE-495" value="" style="shape=tableRow;horizontal=0;startSize=0;swimlaneHead=0;swimlaneBody=0;fillColor=none;collapsible=0;dropTarget=0;points=[[0,0.5],[1,0.5]];portConstraint=eastwest;top=0;left=0;right=0;bottom=1;fontSize=13;" parent="4np4y0qemSY5XBgseXxE-490" vertex="1">
          <mxGeometry y="60" width="239.99999999999977" height="30" as="geometry" />
        </mxCell>
        <mxCell id="4np4y0qemSY5XBgseXxE-496" value="" style="shape=partialRectangle;connectable=0;fillColor=none;top=1;left=0;bottom=1;right=0;fontStyle=0;overflow=hidden;whiteSpace=wrap;html=1;strokeWidth=1;fontSize=13;" parent="4np4y0qemSY5XBgseXxE-495" vertex="1">
          <mxGeometry width="30" height="30" as="geometry">
            <mxRectangle width="30" height="30" as="alternateBounds" />
          </mxGeometry>
        </mxCell>
        <mxCell id="4np4y0qemSY5XBgseXxE-497" value="address" style="shape=partialRectangle;connectable=0;fillColor=none;top=1;left=0;bottom=1;right=0;align=center;spacingLeft=6;fontStyle=0;overflow=hidden;whiteSpace=wrap;html=1;strokeWidth=1;fontSize=13;" parent="4np4y0qemSY5XBgseXxE-495" vertex="1">
          <mxGeometry x="30" width="99.99999999999977" height="30" as="geometry">
            <mxRectangle width="99.99999999999977" height="30" as="alternateBounds" />
          </mxGeometry>
        </mxCell>
        <mxCell id="4np4y0qemSY5XBgseXxE-498" value="VARCHAR(150)" style="shape=partialRectangle;connectable=0;fillColor=none;top=1;left=0;bottom=1;right=0;align=center;spacingLeft=6;fontStyle=0;overflow=hidden;whiteSpace=wrap;html=1;strokeWidth=1;fontSize=13;" parent="4np4y0qemSY5XBgseXxE-495" vertex="1">
          <mxGeometry x="129.99999999999977" width="110" height="30" as="geometry">
            <mxRectangle width="110" height="30" as="alternateBounds" />
          </mxGeometry>
        </mxCell>
        <mxCell id="4np4y0qemSY5XBgseXxE-499" value="" style="shape=tableRow;horizontal=0;startSize=0;swimlaneHead=0;swimlaneBody=0;fillColor=none;collapsible=0;dropTarget=0;points=[[0,0.5],[1,0.5]];portConstraint=eastwest;top=0;left=0;right=0;bottom=0;fontStyle=1;fontSize=13;" parent="4np4y0qemSY5XBgseXxE-490" vertex="1">
          <mxGeometry y="90" width="239.99999999999977" height="30" as="geometry" />
        </mxCell>
        <mxCell id="4np4y0qemSY5XBgseXxE-500" value="" style="shape=partialRectangle;connectable=0;fillColor=none;top=0;left=0;bottom=0;right=0;editable=1;overflow=hidden;whiteSpace=wrap;html=1;fontStyle=0;fontSize=13;" parent="4np4y0qemSY5XBgseXxE-499" vertex="1">
          <mxGeometry width="30" height="30" as="geometry">
            <mxRectangle width="30" height="30" as="alternateBounds" />
          </mxGeometry>
        </mxCell>
        <mxCell id="4np4y0qemSY5XBgseXxE-501" value="instructions" style="shape=partialRectangle;connectable=0;fillColor=none;top=0;left=0;bottom=0;right=0;align=center;spacingLeft=6;overflow=hidden;whiteSpace=wrap;html=1;fontStyle=0;fontSize=13;" parent="4np4y0qemSY5XBgseXxE-499" vertex="1">
          <mxGeometry x="30" width="99.99999999999977" height="30" as="geometry">
            <mxRectangle width="99.99999999999977" height="30" as="alternateBounds" />
          </mxGeometry>
        </mxCell>
        <mxCell id="4np4y0qemSY5XBgseXxE-502" value="VARCHAR(200)" style="shape=partialRectangle;connectable=0;fillColor=none;top=0;left=0;bottom=0;right=0;align=center;spacingLeft=6;overflow=hidden;whiteSpace=wrap;html=1;fontStyle=0;fontSize=13;" parent="4np4y0qemSY5XBgseXxE-499" vertex="1">
          <mxGeometry x="129.99999999999977" width="110" height="30" as="geometry">
            <mxRectangle width="110" height="30" as="alternateBounds" />
          </mxGeometry>
        </mxCell>
        <mxCell id="4np4y0qemSY5XBgseXxE-511" style="edgeStyle=orthogonalEdgeStyle;rounded=0;orthogonalLoop=1;jettySize=auto;html=1;entryX=0;entryY=0.5;entryDx=0;entryDy=0;fontFamily=Helvetica;fontSize=13;fontColor=default;endArrow=ERmandOne;endFill=0;startArrow=ERzeroToMany;startFill=0;exitX=1;exitY=0.5;exitDx=0;exitDy=0;" parent="WIyWlLk6GJQsqaUBKTNV-1" source="4np4y0qemSY5XBgseXxE-404" target="4np4y0qemSY5XBgseXxE-491" edge="1">
          <mxGeometry relative="1" as="geometry" />
        </mxCell>
        <mxCell id="4np4y0qemSY5XBgseXxE-616" value="Takes place in" style="edgeLabel;html=1;align=center;verticalAlign=middle;resizable=0;points=[];strokeColor=default;fontFamily=Helvetica;fontSize=13;fontColor=default;fillColor=none;" parent="4np4y0qemSY5XBgseXxE-511" vertex="1" connectable="0">
          <mxGeometry x="-0.0153" y="2" relative="1" as="geometry">
            <mxPoint as="offset" />
          </mxGeometry>
        </mxCell>
        <mxCell id="4np4y0qemSY5XBgseXxE-512" value="&lt;span style=&quot;font-size: 13px;&quot;&gt;&lt;font style=&quot;font-size: 13px;&quot;&gt;CleanDay_Requirement&lt;/font&gt;&lt;/span&gt;" style="shape=table;startSize=30;container=1;collapsible=1;childLayout=tableLayout;fixedRows=1;rowLines=0;fontStyle=1;align=center;resizeLast=1;html=1;fontSize=13;" parent="WIyWlLk6GJQsqaUBKTNV-1" vertex="1">
          <mxGeometry x="1110" y="600" width="190" height="90" as="geometry" />
        </mxCell>
        <mxCell id="4np4y0qemSY5XBgseXxE-513" value="" style="shape=tableRow;horizontal=0;startSize=0;swimlaneHead=0;swimlaneBody=0;fillColor=none;collapsible=0;dropTarget=0;points=[[0,0.5],[1,0.5]];portConstraint=eastwest;top=0;left=0;right=0;bottom=1;fontSize=13;" parent="4np4y0qemSY5XBgseXxE-512" vertex="1">
          <mxGeometry y="30" width="190" height="30" as="geometry" />
        </mxCell>
        <mxCell id="4np4y0qemSY5XBgseXxE-514" value="PK, FK" style="shape=partialRectangle;connectable=0;fillColor=none;top=1;left=0;bottom=1;right=0;fontStyle=3;overflow=hidden;whiteSpace=wrap;html=1;strokeWidth=1;fontSize=13;" parent="4np4y0qemSY5XBgseXxE-513" vertex="1">
          <mxGeometry width="30" height="30" as="geometry">
            <mxRectangle width="30" height="30" as="alternateBounds" />
          </mxGeometry>
        </mxCell>
        <mxCell id="4np4y0qemSY5XBgseXxE-515" value="cleanday_id" style="shape=partialRectangle;connectable=0;fillColor=none;top=1;left=0;bottom=1;right=0;align=center;spacingLeft=6;fontStyle=3;overflow=hidden;whiteSpace=wrap;html=1;strokeWidth=1;fontSize=13;" parent="4np4y0qemSY5XBgseXxE-513" vertex="1">
          <mxGeometry x="30" width="100" height="30" as="geometry">
            <mxRectangle width="100" height="30" as="alternateBounds" />
          </mxGeometry>
        </mxCell>
        <mxCell id="4np4y0qemSY5XBgseXxE-516" value="INT" style="shape=partialRectangle;connectable=0;fillColor=none;top=1;left=0;bottom=1;right=0;align=center;spacingLeft=6;fontStyle=3;overflow=hidden;whiteSpace=wrap;html=1;strokeWidth=1;fontSize=13;" parent="4np4y0qemSY5XBgseXxE-513" vertex="1">
          <mxGeometry x="130" width="60" height="30" as="geometry">
            <mxRectangle width="60" height="30" as="alternateBounds" />
          </mxGeometry>
        </mxCell>
        <mxCell id="4np4y0qemSY5XBgseXxE-517" value="" style="shape=tableRow;horizontal=0;startSize=0;swimlaneHead=0;swimlaneBody=0;fillColor=none;collapsible=0;dropTarget=0;points=[[0,0.5],[1,0.5]];portConstraint=eastwest;top=0;left=0;right=0;bottom=1;fontSize=13;" parent="4np4y0qemSY5XBgseXxE-512" vertex="1">
          <mxGeometry y="60" width="190" height="30" as="geometry" />
        </mxCell>
        <mxCell id="4np4y0qemSY5XBgseXxE-518" value="PK, FK" style="shape=partialRectangle;connectable=0;fillColor=none;top=1;left=0;bottom=1;right=0;fontStyle=3;overflow=hidden;whiteSpace=wrap;html=1;strokeWidth=1;fontSize=13;" parent="4np4y0qemSY5XBgseXxE-517" vertex="1">
          <mxGeometry width="30" height="30" as="geometry">
            <mxRectangle width="30" height="30" as="alternateBounds" />
          </mxGeometry>
        </mxCell>
        <mxCell id="4np4y0qemSY5XBgseXxE-519" value="requirement_id" style="shape=partialRectangle;connectable=0;fillColor=none;top=1;left=0;bottom=1;right=0;align=center;spacingLeft=6;fontStyle=3;overflow=hidden;whiteSpace=wrap;html=1;strokeWidth=1;fontSize=13;" parent="4np4y0qemSY5XBgseXxE-517" vertex="1">
          <mxGeometry x="30" width="100" height="30" as="geometry">
            <mxRectangle width="100" height="30" as="alternateBounds" />
          </mxGeometry>
        </mxCell>
        <mxCell id="4np4y0qemSY5XBgseXxE-520" value="INT" style="shape=partialRectangle;connectable=0;fillColor=none;top=1;left=0;bottom=1;right=0;align=center;spacingLeft=6;fontStyle=3;overflow=hidden;whiteSpace=wrap;html=1;strokeWidth=1;fontSize=13;" parent="4np4y0qemSY5XBgseXxE-517" vertex="1">
          <mxGeometry x="130" width="60" height="30" as="geometry">
            <mxRectangle width="60" height="30" as="alternateBounds" />
          </mxGeometry>
        </mxCell>
        <mxCell id="4np4y0qemSY5XBgseXxE-523" style="edgeStyle=orthogonalEdgeStyle;rounded=0;orthogonalLoop=1;jettySize=auto;html=1;entryX=1;entryY=0.5;entryDx=0;entryDy=0;fontFamily=Helvetica;fontSize=13;fontColor=default;exitX=1;exitY=0.5;exitDx=0;exitDy=0;endArrow=ERmandOne;endFill=0;startArrow=ERzeroToMany;startFill=0;" parent="WIyWlLk6GJQsqaUBKTNV-1" source="4np4y0qemSY5XBgseXxE-517" target="4np4y0qemSY5XBgseXxE-266" edge="1">
          <mxGeometry relative="1" as="geometry" />
        </mxCell>
        <mxCell id="4np4y0qemSY5XBgseXxE-626" value="Refers to cleaning day" style="edgeLabel;html=1;align=center;verticalAlign=middle;resizable=0;points=[];strokeColor=default;fontFamily=Helvetica;fontSize=13;fontColor=default;fillColor=none;" parent="4np4y0qemSY5XBgseXxE-523" vertex="1" connectable="0">
          <mxGeometry x="-0.1272" y="1" relative="1" as="geometry">
            <mxPoint as="offset" />
          </mxGeometry>
        </mxCell>
        <mxCell id="4np4y0qemSY5XBgseXxE-524" value="&lt;b style=&quot;font-size: 13px;&quot;&gt;&lt;font style=&quot;font-size: 13px;&quot;&gt;Comment&lt;/font&gt;&lt;/b&gt;" style="shape=table;startSize=30;container=1;collapsible=1;childLayout=tableLayout;fixedRows=1;rowLines=0;fontStyle=0;align=center;resizeLast=1;html=1;fontSize=13;" parent="WIyWlLk6GJQsqaUBKTNV-1" vertex="1">
          <mxGeometry x="210" y="40" width="230" height="120" as="geometry" />
        </mxCell>
        <mxCell id="4np4y0qemSY5XBgseXxE-525" value="" style="shape=tableRow;horizontal=0;startSize=0;swimlaneHead=0;swimlaneBody=0;fillColor=none;collapsible=0;dropTarget=0;points=[[0,0.5],[1,0.5]];portConstraint=eastwest;top=0;left=0;right=0;bottom=0;fontSize=13;" parent="4np4y0qemSY5XBgseXxE-524" vertex="1">
          <mxGeometry y="30" width="230" height="30" as="geometry" />
        </mxCell>
        <mxCell id="4np4y0qemSY5XBgseXxE-526" value="PK" style="shape=partialRectangle;connectable=0;fillColor=none;top=1;left=0;bottom=1;right=0;editable=1;overflow=hidden;strokeWidth=1;fontStyle=3;fontSize=13;" parent="4np4y0qemSY5XBgseXxE-525" vertex="1">
          <mxGeometry width="30" height="30" as="geometry">
            <mxRectangle width="30" height="30" as="alternateBounds" />
          </mxGeometry>
        </mxCell>
        <mxCell id="4np4y0qemSY5XBgseXxE-527" value="comment_id" style="shape=partialRectangle;connectable=0;fillColor=none;top=1;left=0;bottom=1;right=0;align=center;spacingLeft=6;overflow=hidden;strokeWidth=1;fontStyle=3;fontSize=13;" parent="4np4y0qemSY5XBgseXxE-525" vertex="1">
          <mxGeometry x="30" width="99.99999999999977" height="30" as="geometry">
            <mxRectangle width="99.99999999999977" height="30" as="alternateBounds" />
          </mxGeometry>
        </mxCell>
        <mxCell id="4np4y0qemSY5XBgseXxE-528" value="INT" style="shape=partialRectangle;connectable=0;fillColor=none;top=1;left=0;bottom=1;right=0;align=center;spacingLeft=6;overflow=hidden;strokeWidth=1;fontStyle=3;fontSize=13;" parent="4np4y0qemSY5XBgseXxE-525" vertex="1">
          <mxGeometry x="129.99999999999977" width="100.00000000000023" height="30" as="geometry">
            <mxRectangle width="100.00000000000023" height="30" as="alternateBounds" />
          </mxGeometry>
        </mxCell>
        <mxCell id="4np4y0qemSY5XBgseXxE-529" value="" style="shape=tableRow;horizontal=0;startSize=0;swimlaneHead=0;swimlaneBody=0;fillColor=none;collapsible=0;dropTarget=0;points=[[0,0.5],[1,0.5]];portConstraint=eastwest;top=0;left=0;right=0;bottom=1;fontSize=13;" parent="4np4y0qemSY5XBgseXxE-524" vertex="1">
          <mxGeometry y="60" width="230" height="30" as="geometry" />
        </mxCell>
        <mxCell id="4np4y0qemSY5XBgseXxE-530" value="" style="shape=partialRectangle;connectable=0;fillColor=none;top=1;left=0;bottom=1;right=0;fontStyle=0;overflow=hidden;whiteSpace=wrap;html=1;strokeWidth=1;fontSize=13;" parent="4np4y0qemSY5XBgseXxE-529" vertex="1">
          <mxGeometry width="30" height="30" as="geometry">
            <mxRectangle width="30" height="30" as="alternateBounds" />
          </mxGeometry>
        </mxCell>
        <mxCell id="4np4y0qemSY5XBgseXxE-531" value="text" style="shape=partialRectangle;connectable=0;fillColor=none;top=1;left=0;bottom=1;right=0;align=center;spacingLeft=6;fontStyle=0;overflow=hidden;whiteSpace=wrap;html=1;strokeWidth=1;fontSize=13;" parent="4np4y0qemSY5XBgseXxE-529" vertex="1">
          <mxGeometry x="30" width="99.99999999999977" height="30" as="geometry">
            <mxRectangle width="99.99999999999977" height="30" as="alternateBounds" />
          </mxGeometry>
        </mxCell>
        <mxCell id="4np4y0qemSY5XBgseXxE-532" value="VARCHAR(200&lt;span style=&quot;background-color: initial; font-size: 13px;&quot;&gt;)&lt;/span&gt;" style="shape=partialRectangle;connectable=0;fillColor=none;top=1;left=0;bottom=1;right=0;align=center;spacingLeft=6;fontStyle=0;overflow=hidden;whiteSpace=wrap;html=1;strokeWidth=1;fontSize=13;" parent="4np4y0qemSY5XBgseXxE-529" vertex="1">
          <mxGeometry x="129.99999999999977" width="100.00000000000023" height="30" as="geometry">
            <mxRectangle width="100.00000000000023" height="30" as="alternateBounds" />
          </mxGeometry>
        </mxCell>
        <mxCell id="4np4y0qemSY5XBgseXxE-533" value="" style="shape=tableRow;horizontal=0;startSize=0;swimlaneHead=0;swimlaneBody=0;fillColor=none;collapsible=0;dropTarget=0;points=[[0,0.5],[1,0.5]];portConstraint=eastwest;top=0;left=0;right=0;bottom=0;fontStyle=1;fontSize=13;" parent="4np4y0qemSY5XBgseXxE-524" vertex="1">
          <mxGeometry y="90" width="230" height="30" as="geometry" />
        </mxCell>
        <mxCell id="4np4y0qemSY5XBgseXxE-534" value="" style="shape=partialRectangle;connectable=0;fillColor=none;top=0;left=0;bottom=0;right=0;editable=1;overflow=hidden;whiteSpace=wrap;html=1;fontStyle=0;fontSize=13;" parent="4np4y0qemSY5XBgseXxE-533" vertex="1">
          <mxGeometry width="30" height="30" as="geometry">
            <mxRectangle width="30" height="30" as="alternateBounds" />
          </mxGeometry>
        </mxCell>
        <mxCell id="4np4y0qemSY5XBgseXxE-535" value="date" style="shape=partialRectangle;connectable=0;fillColor=none;top=0;left=0;bottom=0;right=0;align=center;spacingLeft=6;overflow=hidden;whiteSpace=wrap;html=1;fontStyle=0;fontSize=13;" parent="4np4y0qemSY5XBgseXxE-533" vertex="1">
          <mxGeometry x="30" width="99.99999999999977" height="30" as="geometry">
            <mxRectangle width="99.99999999999977" height="30" as="alternateBounds" />
          </mxGeometry>
        </mxCell>
        <mxCell id="4np4y0qemSY5XBgseXxE-536" value="DATETIME" style="shape=partialRectangle;connectable=0;fillColor=none;top=0;left=0;bottom=0;right=0;align=center;spacingLeft=6;overflow=hidden;whiteSpace=wrap;html=1;fontStyle=0;fontSize=13;" parent="4np4y0qemSY5XBgseXxE-533" vertex="1">
          <mxGeometry x="129.99999999999977" width="100.00000000000023" height="30" as="geometry">
            <mxRectangle width="100.00000000000023" height="30" as="alternateBounds" />
          </mxGeometry>
        </mxCell>
        <mxCell id="4np4y0qemSY5XBgseXxE-542" value="&lt;span style=&quot;font-size: 13px;&quot;&gt;&lt;font style=&quot;font-size: 13px;&quot;&gt;Participation_Comment&lt;/font&gt;&lt;/span&gt;" style="shape=table;startSize=30;container=1;collapsible=1;childLayout=tableLayout;fixedRows=1;rowLines=0;fontStyle=1;align=center;resizeLast=1;html=1;fontSize=13;" parent="WIyWlLk6GJQsqaUBKTNV-1" vertex="1">
          <mxGeometry x="110" y="200" width="190" height="90" as="geometry" />
        </mxCell>
        <mxCell id="4np4y0qemSY5XBgseXxE-543" value="" style="shape=tableRow;horizontal=0;startSize=0;swimlaneHead=0;swimlaneBody=0;fillColor=none;collapsible=0;dropTarget=0;points=[[0,0.5],[1,0.5]];portConstraint=eastwest;top=0;left=0;right=0;bottom=1;fontSize=13;" parent="4np4y0qemSY5XBgseXxE-542" vertex="1">
          <mxGeometry y="30" width="190" height="30" as="geometry" />
        </mxCell>
        <mxCell id="4np4y0qemSY5XBgseXxE-544" value="PK, FK" style="shape=partialRectangle;connectable=0;fillColor=none;top=1;left=0;bottom=1;right=0;fontStyle=3;overflow=hidden;whiteSpace=wrap;html=1;strokeWidth=1;fontSize=13;" parent="4np4y0qemSY5XBgseXxE-543" vertex="1">
          <mxGeometry width="30" height="30" as="geometry">
            <mxRectangle width="30" height="30" as="alternateBounds" />
          </mxGeometry>
        </mxCell>
        <mxCell id="4np4y0qemSY5XBgseXxE-545" value="&lt;span style=&quot;text-wrap: nowrap; font-size: 13px;&quot;&gt;participation_id&lt;/span&gt;" style="shape=partialRectangle;connectable=0;fillColor=none;top=1;left=0;bottom=1;right=0;align=center;spacingLeft=6;fontStyle=3;overflow=hidden;whiteSpace=wrap;html=1;strokeWidth=1;fontSize=13;" parent="4np4y0qemSY5XBgseXxE-543" vertex="1">
          <mxGeometry x="30" width="100" height="30" as="geometry">
            <mxRectangle width="100" height="30" as="alternateBounds" />
          </mxGeometry>
        </mxCell>
        <mxCell id="4np4y0qemSY5XBgseXxE-546" value="INT" style="shape=partialRectangle;connectable=0;fillColor=none;top=1;left=0;bottom=1;right=0;align=center;spacingLeft=6;fontStyle=3;overflow=hidden;whiteSpace=wrap;html=1;strokeWidth=1;fontSize=13;" parent="4np4y0qemSY5XBgseXxE-543" vertex="1">
          <mxGeometry x="130" width="60" height="30" as="geometry">
            <mxRectangle width="60" height="30" as="alternateBounds" />
          </mxGeometry>
        </mxCell>
        <mxCell id="4np4y0qemSY5XBgseXxE-547" value="" style="shape=tableRow;horizontal=0;startSize=0;swimlaneHead=0;swimlaneBody=0;fillColor=none;collapsible=0;dropTarget=0;points=[[0,0.5],[1,0.5]];portConstraint=eastwest;top=0;left=0;right=0;bottom=1;fontSize=13;" parent="4np4y0qemSY5XBgseXxE-542" vertex="1">
          <mxGeometry y="60" width="190" height="30" as="geometry" />
        </mxCell>
        <mxCell id="4np4y0qemSY5XBgseXxE-548" value="PK, FK" style="shape=partialRectangle;connectable=0;fillColor=none;top=1;left=0;bottom=1;right=0;fontStyle=3;overflow=hidden;whiteSpace=wrap;html=1;strokeWidth=1;fontSize=13;" parent="4np4y0qemSY5XBgseXxE-547" vertex="1">
          <mxGeometry width="30" height="30" as="geometry">
            <mxRectangle width="30" height="30" as="alternateBounds" />
          </mxGeometry>
        </mxCell>
        <mxCell id="4np4y0qemSY5XBgseXxE-549" value="comment_id" style="shape=partialRectangle;connectable=0;fillColor=none;top=1;left=0;bottom=1;right=0;align=center;spacingLeft=6;fontStyle=3;overflow=hidden;whiteSpace=wrap;html=1;strokeWidth=1;fontSize=13;" parent="4np4y0qemSY5XBgseXxE-547" vertex="1">
          <mxGeometry x="30" width="100" height="30" as="geometry">
            <mxRectangle width="100" height="30" as="alternateBounds" />
          </mxGeometry>
        </mxCell>
        <mxCell id="4np4y0qemSY5XBgseXxE-550" value="INT" style="shape=partialRectangle;connectable=0;fillColor=none;top=1;left=0;bottom=1;right=0;align=center;spacingLeft=6;fontStyle=3;overflow=hidden;whiteSpace=wrap;html=1;strokeWidth=1;fontSize=13;" parent="4np4y0qemSY5XBgseXxE-547" vertex="1">
          <mxGeometry x="130" width="60" height="30" as="geometry">
            <mxRectangle width="60" height="30" as="alternateBounds" />
          </mxGeometry>
        </mxCell>
        <mxCell id="4np4y0qemSY5XBgseXxE-551" value="&lt;span style=&quot;font-size: 13px;&quot;&gt;&lt;font style=&quot;font-size: 13px;&quot;&gt;CleanDay_Comment&lt;/font&gt;&lt;/span&gt;" style="shape=table;startSize=30;container=1;collapsible=1;childLayout=tableLayout;fixedRows=1;rowLines=0;fontStyle=1;align=center;resizeLast=1;html=1;fontSize=13;" parent="WIyWlLk6GJQsqaUBKTNV-1" vertex="1">
          <mxGeometry x="590" y="70" width="190" height="90" as="geometry" />
        </mxCell>
        <mxCell id="4np4y0qemSY5XBgseXxE-552" value="" style="shape=tableRow;horizontal=0;startSize=0;swimlaneHead=0;swimlaneBody=0;fillColor=none;collapsible=0;dropTarget=0;points=[[0,0.5],[1,0.5]];portConstraint=eastwest;top=0;left=0;right=0;bottom=1;fontSize=13;" parent="4np4y0qemSY5XBgseXxE-551" vertex="1">
          <mxGeometry y="30" width="190" height="30" as="geometry" />
        </mxCell>
        <mxCell id="4np4y0qemSY5XBgseXxE-553" value="PK, FK" style="shape=partialRectangle;connectable=0;fillColor=none;top=1;left=0;bottom=1;right=0;fontStyle=3;overflow=hidden;whiteSpace=wrap;html=1;strokeWidth=1;fontSize=13;" parent="4np4y0qemSY5XBgseXxE-552" vertex="1">
          <mxGeometry width="30" height="30" as="geometry">
            <mxRectangle width="30" height="30" as="alternateBounds" />
          </mxGeometry>
        </mxCell>
        <mxCell id="4np4y0qemSY5XBgseXxE-554" value="cleanday_id" style="shape=partialRectangle;connectable=0;fillColor=none;top=1;left=0;bottom=1;right=0;align=center;spacingLeft=6;fontStyle=3;overflow=hidden;whiteSpace=wrap;html=1;strokeWidth=1;fontSize=13;" parent="4np4y0qemSY5XBgseXxE-552" vertex="1">
          <mxGeometry x="30" width="100" height="30" as="geometry">
            <mxRectangle width="100" height="30" as="alternateBounds" />
          </mxGeometry>
        </mxCell>
        <mxCell id="4np4y0qemSY5XBgseXxE-555" value="INT" style="shape=partialRectangle;connectable=0;fillColor=none;top=1;left=0;bottom=1;right=0;align=center;spacingLeft=6;fontStyle=3;overflow=hidden;whiteSpace=wrap;html=1;strokeWidth=1;fontSize=13;" parent="4np4y0qemSY5XBgseXxE-552" vertex="1">
          <mxGeometry x="130" width="60" height="30" as="geometry">
            <mxRectangle width="60" height="30" as="alternateBounds" />
          </mxGeometry>
        </mxCell>
        <mxCell id="4np4y0qemSY5XBgseXxE-556" value="" style="shape=tableRow;horizontal=0;startSize=0;swimlaneHead=0;swimlaneBody=0;fillColor=none;collapsible=0;dropTarget=0;points=[[0,0.5],[1,0.5]];portConstraint=eastwest;top=0;left=0;right=0;bottom=1;fontSize=13;" parent="4np4y0qemSY5XBgseXxE-551" vertex="1">
          <mxGeometry y="60" width="190" height="30" as="geometry" />
        </mxCell>
        <mxCell id="4np4y0qemSY5XBgseXxE-557" value="PK, FK" style="shape=partialRectangle;connectable=0;fillColor=none;top=1;left=0;bottom=1;right=0;fontStyle=3;overflow=hidden;whiteSpace=wrap;html=1;strokeWidth=1;fontSize=13;" parent="4np4y0qemSY5XBgseXxE-556" vertex="1">
          <mxGeometry width="30" height="30" as="geometry">
            <mxRectangle width="30" height="30" as="alternateBounds" />
          </mxGeometry>
        </mxCell>
        <mxCell id="4np4y0qemSY5XBgseXxE-558" value="comment_id" style="shape=partialRectangle;connectable=0;fillColor=none;top=1;left=0;bottom=1;right=0;align=center;spacingLeft=6;fontStyle=3;overflow=hidden;whiteSpace=wrap;html=1;strokeWidth=1;fontSize=13;" parent="4np4y0qemSY5XBgseXxE-556" vertex="1">
          <mxGeometry x="30" width="100" height="30" as="geometry">
            <mxRectangle width="100" height="30" as="alternateBounds" />
          </mxGeometry>
        </mxCell>
        <mxCell id="4np4y0qemSY5XBgseXxE-559" value="INT" style="shape=partialRectangle;connectable=0;fillColor=none;top=1;left=0;bottom=1;right=0;align=center;spacingLeft=6;fontStyle=3;overflow=hidden;whiteSpace=wrap;html=1;strokeWidth=1;fontSize=13;" parent="4np4y0qemSY5XBgseXxE-556" vertex="1">
          <mxGeometry x="130" width="60" height="30" as="geometry">
            <mxRectangle width="60" height="30" as="alternateBounds" />
          </mxGeometry>
        </mxCell>
        <mxCell id="4np4y0qemSY5XBgseXxE-561" style="edgeStyle=orthogonalEdgeStyle;rounded=0;orthogonalLoop=1;jettySize=auto;html=1;entryX=1;entryY=0.5;entryDx=0;entryDy=0;fontFamily=Helvetica;fontSize=13;fontColor=default;endArrow=ERzeroToMany;endFill=0;startArrow=ERmandOne;startFill=0;" parent="WIyWlLk6GJQsqaUBKTNV-1" source="4np4y0qemSY5XBgseXxE-306" target="4np4y0qemSY5XBgseXxE-552" edge="1">
          <mxGeometry relative="1" as="geometry" />
        </mxCell>
        <mxCell id="4np4y0qemSY5XBgseXxE-619" value="Has comment" style="edgeLabel;html=1;align=center;verticalAlign=middle;resizable=0;points=[];strokeColor=default;fontFamily=Helvetica;fontSize=13;fontColor=default;fillColor=none;" parent="4np4y0qemSY5XBgseXxE-561" vertex="1" connectable="0">
          <mxGeometry x="0.1244" y="-1" relative="1" as="geometry">
            <mxPoint x="1" as="offset" />
          </mxGeometry>
        </mxCell>
        <mxCell id="4np4y0qemSY5XBgseXxE-562" style="edgeStyle=orthogonalEdgeStyle;rounded=0;orthogonalLoop=1;jettySize=auto;html=1;entryX=1;entryY=0.5;entryDx=0;entryDy=0;fontFamily=Helvetica;fontSize=13;fontColor=default;endArrow=ERmandOne;endFill=0;startArrow=ERzeroToMany;startFill=0;" parent="WIyWlLk6GJQsqaUBKTNV-1" source="4np4y0qemSY5XBgseXxE-556" target="4np4y0qemSY5XBgseXxE-525" edge="1">
          <mxGeometry relative="1" as="geometry" />
        </mxCell>
        <mxCell id="4np4y0qemSY5XBgseXxE-620" value="Refers to" style="edgeLabel;html=1;align=center;verticalAlign=middle;resizable=0;points=[];strokeColor=default;fontFamily=Helvetica;fontSize=13;fontColor=default;fillColor=none;" parent="4np4y0qemSY5XBgseXxE-562" vertex="1" connectable="0">
          <mxGeometry x="0.044" relative="1" as="geometry">
            <mxPoint x="-2" y="9" as="offset" />
          </mxGeometry>
        </mxCell>
        <mxCell id="4np4y0qemSY5XBgseXxE-563" style="edgeStyle=orthogonalEdgeStyle;rounded=0;orthogonalLoop=1;jettySize=auto;html=1;fontFamily=Helvetica;fontSize=13;fontColor=default;endArrow=ERzeroToMany;endFill=0;startArrow=ERmandOne;startFill=0;entryX=0;entryY=0.5;entryDx=0;entryDy=0;" parent="WIyWlLk6GJQsqaUBKTNV-1" source="4np4y0qemSY5XBgseXxE-525" target="4np4y0qemSY5XBgseXxE-543" edge="1">
          <mxGeometry relative="1" as="geometry">
            <mxPoint x="150" y="190" as="targetPoint" />
          </mxGeometry>
        </mxCell>
        <mxCell id="4np4y0qemSY5XBgseXxE-621" value="Authored by" style="edgeLabel;html=1;align=center;verticalAlign=middle;resizable=0;points=[];strokeColor=default;fontFamily=Helvetica;fontSize=13;fontColor=default;fillColor=none;" parent="4np4y0qemSY5XBgseXxE-563" vertex="1" connectable="0">
          <mxGeometry x="0.1037" y="-3" relative="1" as="geometry">
            <mxPoint x="3" y="29" as="offset" />
          </mxGeometry>
        </mxCell>
        <mxCell id="4np4y0qemSY5XBgseXxE-564" value="&lt;b style=&quot;font-size: 13px;&quot;&gt;&lt;font style=&quot;font-size: 13px;&quot;&gt;Image&lt;/font&gt;&lt;/b&gt;" style="shape=table;startSize=30;container=1;collapsible=1;childLayout=tableLayout;fixedRows=1;rowLines=0;fontStyle=0;align=center;resizeLast=1;html=1;fontSize=13;" parent="WIyWlLk6GJQsqaUBKTNV-1" vertex="1">
          <mxGeometry x="1400" y="829" width="239.99999999999977" height="150" as="geometry" />
        </mxCell>
        <mxCell id="4np4y0qemSY5XBgseXxE-565" value="" style="shape=tableRow;horizontal=0;startSize=0;swimlaneHead=0;swimlaneBody=0;fillColor=none;collapsible=0;dropTarget=0;points=[[0,0.5],[1,0.5]];portConstraint=eastwest;top=0;left=0;right=0;bottom=0;fontSize=13;" parent="4np4y0qemSY5XBgseXxE-564" vertex="1">
          <mxGeometry y="30" width="239.99999999999977" height="30" as="geometry" />
        </mxCell>
        <mxCell id="4np4y0qemSY5XBgseXxE-566" value="PK" style="shape=partialRectangle;connectable=0;fillColor=none;top=1;left=0;bottom=1;right=0;editable=1;overflow=hidden;strokeWidth=1;fontStyle=3;fontSize=13;" parent="4np4y0qemSY5XBgseXxE-565" vertex="1">
          <mxGeometry width="30" height="30" as="geometry">
            <mxRectangle width="30" height="30" as="alternateBounds" />
          </mxGeometry>
        </mxCell>
        <mxCell id="4np4y0qemSY5XBgseXxE-567" value="image_id" style="shape=partialRectangle;connectable=0;fillColor=none;top=1;left=0;bottom=1;right=0;align=center;spacingLeft=6;overflow=hidden;strokeWidth=1;fontStyle=3;fontSize=13;" parent="4np4y0qemSY5XBgseXxE-565" vertex="1">
          <mxGeometry x="30" width="99.99999999999977" height="30" as="geometry">
            <mxRectangle width="99.99999999999977" height="30" as="alternateBounds" />
          </mxGeometry>
        </mxCell>
        <mxCell id="4np4y0qemSY5XBgseXxE-568" value="INT" style="shape=partialRectangle;connectable=0;fillColor=none;top=1;left=0;bottom=1;right=0;align=center;spacingLeft=6;overflow=hidden;strokeWidth=1;fontStyle=3;fontSize=13;" parent="4np4y0qemSY5XBgseXxE-565" vertex="1">
          <mxGeometry x="129.99999999999977" width="110" height="30" as="geometry">
            <mxRectangle width="110" height="30" as="alternateBounds" />
          </mxGeometry>
        </mxCell>
        <mxCell id="4np4y0qemSY5XBgseXxE-569" value="" style="shape=tableRow;horizontal=0;startSize=0;swimlaneHead=0;swimlaneBody=0;fillColor=none;collapsible=0;dropTarget=0;points=[[0,0.5],[1,0.5]];portConstraint=eastwest;top=0;left=0;right=0;bottom=1;fontSize=13;" parent="4np4y0qemSY5XBgseXxE-564" vertex="1">
          <mxGeometry y="60" width="239.99999999999977" height="30" as="geometry" />
        </mxCell>
        <mxCell id="4np4y0qemSY5XBgseXxE-570" value="" style="shape=partialRectangle;connectable=0;fillColor=none;top=1;left=0;bottom=1;right=0;fontStyle=0;overflow=hidden;whiteSpace=wrap;html=1;strokeWidth=1;fontSize=13;" parent="4np4y0qemSY5XBgseXxE-569" vertex="1">
          <mxGeometry width="30" height="30" as="geometry">
            <mxRectangle width="30" height="30" as="alternateBounds" />
          </mxGeometry>
        </mxCell>
        <mxCell id="4np4y0qemSY5XBgseXxE-571" value="name" style="shape=partialRectangle;connectable=0;fillColor=none;top=1;left=0;bottom=1;right=0;align=center;spacingLeft=6;fontStyle=0;overflow=hidden;whiteSpace=wrap;html=1;strokeWidth=1;fontSize=13;" parent="4np4y0qemSY5XBgseXxE-569" vertex="1">
          <mxGeometry x="30" width="99.99999999999977" height="30" as="geometry">
            <mxRectangle width="99.99999999999977" height="30" as="alternateBounds" />
          </mxGeometry>
        </mxCell>
        <mxCell id="4np4y0qemSY5XBgseXxE-572" value="VARCHAR(100)" style="shape=partialRectangle;connectable=0;fillColor=none;top=1;left=0;bottom=1;right=0;align=center;spacingLeft=6;fontStyle=0;overflow=hidden;whiteSpace=wrap;html=1;strokeWidth=1;fontSize=13;" parent="4np4y0qemSY5XBgseXxE-569" vertex="1">
          <mxGeometry x="129.99999999999977" width="110" height="30" as="geometry">
            <mxRectangle width="110" height="30" as="alternateBounds" />
          </mxGeometry>
        </mxCell>
        <mxCell id="4np4y0qemSY5XBgseXxE-573" value="" style="shape=tableRow;horizontal=0;startSize=0;swimlaneHead=0;swimlaneBody=0;fillColor=none;collapsible=0;dropTarget=0;points=[[0,0.5],[1,0.5]];portConstraint=eastwest;top=0;left=0;right=0;bottom=0;fontStyle=1;fontSize=13;" parent="4np4y0qemSY5XBgseXxE-564" vertex="1">
          <mxGeometry y="90" width="239.99999999999977" height="30" as="geometry" />
        </mxCell>
        <mxCell id="4np4y0qemSY5XBgseXxE-574" value="" style="shape=partialRectangle;connectable=0;fillColor=none;top=0;left=0;bottom=0;right=0;editable=1;overflow=hidden;whiteSpace=wrap;html=1;fontStyle=0;fontSize=13;" parent="4np4y0qemSY5XBgseXxE-573" vertex="1">
          <mxGeometry width="30" height="30" as="geometry">
            <mxRectangle width="30" height="30" as="alternateBounds" />
          </mxGeometry>
        </mxCell>
        <mxCell id="4np4y0qemSY5XBgseXxE-575" value="description" style="shape=partialRectangle;connectable=0;fillColor=none;top=0;left=0;bottom=0;right=0;align=center;spacingLeft=6;overflow=hidden;whiteSpace=wrap;html=1;fontStyle=0;fontSize=13;" parent="4np4y0qemSY5XBgseXxE-573" vertex="1">
          <mxGeometry x="30" width="99.99999999999977" height="30" as="geometry">
            <mxRectangle width="99.99999999999977" height="30" as="alternateBounds" />
          </mxGeometry>
        </mxCell>
        <mxCell id="4np4y0qemSY5XBgseXxE-576" value="VARCHAR(200)" style="shape=partialRectangle;connectable=0;fillColor=none;top=0;left=0;bottom=0;right=0;align=center;spacingLeft=6;overflow=hidden;whiteSpace=wrap;html=1;fontStyle=0;fontSize=13;" parent="4np4y0qemSY5XBgseXxE-573" vertex="1">
          <mxGeometry x="129.99999999999977" width="110" height="30" as="geometry">
            <mxRectangle width="110" height="30" as="alternateBounds" />
          </mxGeometry>
        </mxCell>
        <mxCell id="4np4y0qemSY5XBgseXxE-577" value="" style="shape=tableRow;horizontal=0;startSize=0;swimlaneHead=0;swimlaneBody=0;fillColor=none;collapsible=0;dropTarget=0;points=[[0,0.5],[1,0.5]];portConstraint=eastwest;top=0;left=0;right=0;bottom=1;fontSize=13;" parent="4np4y0qemSY5XBgseXxE-564" vertex="1">
          <mxGeometry y="120" width="239.99999999999977" height="30" as="geometry" />
        </mxCell>
        <mxCell id="4np4y0qemSY5XBgseXxE-578" value="" style="shape=partialRectangle;connectable=0;fillColor=none;top=1;left=0;bottom=1;right=0;fontStyle=2;overflow=hidden;whiteSpace=wrap;html=1;strokeWidth=1;fontSize=13;" parent="4np4y0qemSY5XBgseXxE-577" vertex="1">
          <mxGeometry width="30" height="30" as="geometry">
            <mxRectangle width="30" height="30" as="alternateBounds" />
          </mxGeometry>
        </mxCell>
        <mxCell id="4np4y0qemSY5XBgseXxE-579" value="photo" style="shape=partialRectangle;connectable=0;fillColor=none;top=1;left=0;bottom=1;right=0;align=center;spacingLeft=6;fontStyle=0;overflow=hidden;whiteSpace=wrap;html=1;strokeWidth=1;fontSize=13;" parent="4np4y0qemSY5XBgseXxE-577" vertex="1">
          <mxGeometry x="30" width="99.99999999999977" height="30" as="geometry">
            <mxRectangle width="99.99999999999977" height="30" as="alternateBounds" />
          </mxGeometry>
        </mxCell>
        <mxCell id="4np4y0qemSY5XBgseXxE-580" value="&lt;span style=&quot;font-style: normal; font-size: 13px;&quot;&gt;BLOB&lt;/span&gt;" style="shape=partialRectangle;connectable=0;fillColor=none;top=1;left=0;bottom=1;right=0;align=center;spacingLeft=6;fontStyle=2;overflow=hidden;whiteSpace=wrap;html=1;strokeWidth=1;fontSize=13;" parent="4np4y0qemSY5XBgseXxE-577" vertex="1">
          <mxGeometry x="129.99999999999977" width="110" height="30" as="geometry">
            <mxRectangle width="110" height="30" as="alternateBounds" />
          </mxGeometry>
        </mxCell>
        <mxCell id="SI6b12-N1GQDOYppAXkW-3" style="edgeStyle=orthogonalEdgeStyle;rounded=0;orthogonalLoop=1;jettySize=auto;html=1;entryX=1;entryY=0.5;entryDx=0;entryDy=0;curved=1;dashed=1;exitX=1;exitY=0.5;exitDx=0;exitDy=0;fontSize=13;" parent="WIyWlLk6GJQsqaUBKTNV-1" source="4np4y0qemSY5XBgseXxE-603" target="4np4y0qemSY5XBgseXxE-491" edge="1">
          <mxGeometry relative="1" as="geometry">
            <Array as="points">
              <mxPoint x="1200" y="1070" />
              <mxPoint x="1880" y="1070" />
              <mxPoint x="1880" y="205" />
            </Array>
          </mxGeometry>
        </mxCell>
        <mxCell id="SI6b12-N1GQDOYppAXkW-4" value="Related to" style="edgeLabel;html=1;align=center;verticalAlign=middle;resizable=0;points=[];fontSize=13;" parent="SI6b12-N1GQDOYppAXkW-3" vertex="1" connectable="0">
          <mxGeometry x="0.3353" y="8" relative="1" as="geometry">
            <mxPoint as="offset" />
          </mxGeometry>
        </mxCell>
        <mxCell id="SI6b12-N1GQDOYppAXkW-35" style="edgeStyle=orthogonalEdgeStyle;rounded=0;orthogonalLoop=1;jettySize=auto;html=1;entryX=0;entryY=0.5;entryDx=0;entryDy=0;dashed=1;curved=1;" parent="WIyWlLk6GJQsqaUBKTNV-1" source="4np4y0qemSY5XBgseXxE-586" target="4np4y0qemSY5XBgseXxE-404" edge="1">
          <mxGeometry relative="1" as="geometry">
            <Array as="points">
              <mxPoint x="1070" y="640" />
              <mxPoint x="860" y="640" />
              <mxPoint x="860" y="474" />
            </Array>
          </mxGeometry>
        </mxCell>
        <mxCell id="SI6b12-N1GQDOYppAXkW-36" value="&lt;font style=&quot;font-size: 13px;&quot;&gt;Related to&lt;/font&gt;" style="edgeLabel;html=1;align=center;verticalAlign=middle;resizable=0;points=[];" parent="SI6b12-N1GQDOYppAXkW-35" vertex="1" connectable="0">
          <mxGeometry x="0.3845" y="-17" relative="1" as="geometry">
            <mxPoint as="offset" />
          </mxGeometry>
        </mxCell>
        <mxCell id="4np4y0qemSY5XBgseXxE-586" value="&lt;b style=&quot;font-size: 13px;&quot;&gt;&lt;font style=&quot;font-size: 13px;&quot;&gt;Log&lt;/font&gt;&lt;/b&gt;" style="shape=table;startSize=30;container=1;collapsible=1;childLayout=tableLayout;fixedRows=1;rowLines=0;fontStyle=0;align=center;resizeLast=1;html=1;fontSize=13;" parent="WIyWlLk6GJQsqaUBKTNV-1" vertex="1">
          <mxGeometry x="940" y="959" width="260" height="210" as="geometry" />
        </mxCell>
        <mxCell id="4np4y0qemSY5XBgseXxE-587" value="" style="shape=tableRow;horizontal=0;startSize=0;swimlaneHead=0;swimlaneBody=0;fillColor=none;collapsible=0;dropTarget=0;points=[[0,0.5],[1,0.5]];portConstraint=eastwest;top=0;left=0;right=0;bottom=0;fontSize=13;" parent="4np4y0qemSY5XBgseXxE-586" vertex="1">
          <mxGeometry y="30" width="260" height="30" as="geometry" />
        </mxCell>
        <mxCell id="4np4y0qemSY5XBgseXxE-588" value="PK" style="shape=partialRectangle;connectable=0;fillColor=none;top=1;left=0;bottom=1;right=0;editable=1;overflow=hidden;strokeWidth=1;fontStyle=3;fontSize=13;" parent="4np4y0qemSY5XBgseXxE-587" vertex="1">
          <mxGeometry width="30" height="30" as="geometry">
            <mxRectangle width="30" height="30" as="alternateBounds" />
          </mxGeometry>
        </mxCell>
        <mxCell id="4np4y0qemSY5XBgseXxE-589" value="log_id" style="shape=partialRectangle;connectable=0;fillColor=none;top=1;left=0;bottom=1;right=0;align=center;spacingLeft=6;overflow=hidden;strokeWidth=1;fontStyle=3;fontSize=13;" parent="4np4y0qemSY5XBgseXxE-587" vertex="1">
          <mxGeometry x="30" width="120" height="30" as="geometry">
            <mxRectangle width="120" height="30" as="alternateBounds" />
          </mxGeometry>
        </mxCell>
        <mxCell id="4np4y0qemSY5XBgseXxE-590" value="INT" style="shape=partialRectangle;connectable=0;fillColor=none;top=1;left=0;bottom=1;right=0;align=center;spacingLeft=6;overflow=hidden;strokeWidth=1;fontStyle=3;fontSize=13;" parent="4np4y0qemSY5XBgseXxE-587" vertex="1">
          <mxGeometry x="150" width="110" height="30" as="geometry">
            <mxRectangle width="110" height="30" as="alternateBounds" />
          </mxGeometry>
        </mxCell>
        <mxCell id="4np4y0qemSY5XBgseXxE-591" value="" style="shape=tableRow;horizontal=0;startSize=0;swimlaneHead=0;swimlaneBody=0;fillColor=none;collapsible=0;dropTarget=0;points=[[0,0.5],[1,0.5]];portConstraint=eastwest;top=0;left=0;right=0;bottom=1;fontSize=13;" parent="4np4y0qemSY5XBgseXxE-586" vertex="1">
          <mxGeometry y="60" width="260" height="30" as="geometry" />
        </mxCell>
        <mxCell id="4np4y0qemSY5XBgseXxE-592" value="" style="shape=partialRectangle;connectable=0;fillColor=none;top=1;left=0;bottom=1;right=0;fontStyle=0;overflow=hidden;whiteSpace=wrap;html=1;strokeWidth=1;fontSize=13;" parent="4np4y0qemSY5XBgseXxE-591" vertex="1">
          <mxGeometry width="30" height="30" as="geometry">
            <mxRectangle width="30" height="30" as="alternateBounds" />
          </mxGeometry>
        </mxCell>
        <mxCell id="4np4y0qemSY5XBgseXxE-593" value="date" style="shape=partialRectangle;connectable=0;fillColor=none;top=1;left=0;bottom=1;right=0;align=center;spacingLeft=6;fontStyle=0;overflow=hidden;whiteSpace=wrap;html=1;strokeWidth=1;fontSize=13;" parent="4np4y0qemSY5XBgseXxE-591" vertex="1">
          <mxGeometry x="30" width="120" height="30" as="geometry">
            <mxRectangle width="120" height="30" as="alternateBounds" />
          </mxGeometry>
        </mxCell>
        <mxCell id="4np4y0qemSY5XBgseXxE-594" value="DATETIME" style="shape=partialRectangle;connectable=0;fillColor=none;top=1;left=0;bottom=1;right=0;align=center;spacingLeft=6;fontStyle=0;overflow=hidden;whiteSpace=wrap;html=1;strokeWidth=1;fontSize=13;" parent="4np4y0qemSY5XBgseXxE-591" vertex="1">
          <mxGeometry x="150" width="110" height="30" as="geometry">
            <mxRectangle width="110" height="30" as="alternateBounds" />
          </mxGeometry>
        </mxCell>
        <mxCell id="4np4y0qemSY5XBgseXxE-595" value="" style="shape=tableRow;horizontal=0;startSize=0;swimlaneHead=0;swimlaneBody=0;fillColor=none;collapsible=0;dropTarget=0;points=[[0,0.5],[1,0.5]];portConstraint=eastwest;top=0;left=0;right=0;bottom=0;fontStyle=1;fontSize=13;" parent="4np4y0qemSY5XBgseXxE-586" vertex="1">
          <mxGeometry y="90" width="260" height="30" as="geometry" />
        </mxCell>
        <mxCell id="4np4y0qemSY5XBgseXxE-596" value="" style="shape=partialRectangle;connectable=0;fillColor=none;top=0;left=0;bottom=0;right=0;editable=1;overflow=hidden;whiteSpace=wrap;html=1;fontStyle=0;fontSize=13;" parent="4np4y0qemSY5XBgseXxE-595" vertex="1">
          <mxGeometry width="30" height="30" as="geometry">
            <mxRectangle width="30" height="30" as="alternateBounds" />
          </mxGeometry>
        </mxCell>
        <mxCell id="4np4y0qemSY5XBgseXxE-597" value="type" style="shape=partialRectangle;connectable=0;fillColor=none;top=0;left=0;bottom=0;right=0;align=center;spacingLeft=6;overflow=hidden;whiteSpace=wrap;html=1;fontStyle=0;fontSize=13;" parent="4np4y0qemSY5XBgseXxE-595" vertex="1">
          <mxGeometry x="30" width="120" height="30" as="geometry">
            <mxRectangle width="120" height="30" as="alternateBounds" />
          </mxGeometry>
        </mxCell>
        <mxCell id="4np4y0qemSY5XBgseXxE-598" value="VARCHAR(20)" style="shape=partialRectangle;connectable=0;fillColor=none;top=0;left=0;bottom=0;right=0;align=center;spacingLeft=6;overflow=hidden;whiteSpace=wrap;html=1;fontStyle=0;fontSize=13;" parent="4np4y0qemSY5XBgseXxE-595" vertex="1">
          <mxGeometry x="150" width="110" height="30" as="geometry">
            <mxRectangle width="110" height="30" as="alternateBounds" />
          </mxGeometry>
        </mxCell>
        <mxCell id="4np4y0qemSY5XBgseXxE-599" value="" style="shape=tableRow;horizontal=0;startSize=0;swimlaneHead=0;swimlaneBody=0;fillColor=none;collapsible=0;dropTarget=0;points=[[0,0.5],[1,0.5]];portConstraint=eastwest;top=0;left=0;right=0;bottom=1;fontSize=13;" parent="4np4y0qemSY5XBgseXxE-586" vertex="1">
          <mxGeometry y="120" width="260" height="30" as="geometry" />
        </mxCell>
        <mxCell id="4np4y0qemSY5XBgseXxE-600" value="" style="shape=partialRectangle;connectable=0;fillColor=none;top=1;left=0;bottom=1;right=0;fontStyle=2;overflow=hidden;whiteSpace=wrap;html=1;strokeWidth=1;fontSize=13;" parent="4np4y0qemSY5XBgseXxE-599" vertex="1">
          <mxGeometry width="30" height="30" as="geometry">
            <mxRectangle width="30" height="30" as="alternateBounds" />
          </mxGeometry>
        </mxCell>
        <mxCell id="4np4y0qemSY5XBgseXxE-601" value="&lt;span style=&quot;font-style: normal; font-size: 13px;&quot;&gt;description&lt;/span&gt;" style="shape=partialRectangle;connectable=0;fillColor=none;top=1;left=0;bottom=1;right=0;align=center;spacingLeft=6;fontStyle=2;overflow=hidden;whiteSpace=wrap;html=1;strokeWidth=1;fontSize=13;" parent="4np4y0qemSY5XBgseXxE-599" vertex="1">
          <mxGeometry x="30" width="120" height="30" as="geometry">
            <mxRectangle width="120" height="30" as="alternateBounds" />
          </mxGeometry>
        </mxCell>
        <mxCell id="4np4y0qemSY5XBgseXxE-602" value="VARCHAR(200)" style="shape=partialRectangle;connectable=0;fillColor=none;top=1;left=0;bottom=1;right=0;align=center;spacingLeft=6;fontStyle=2;overflow=hidden;whiteSpace=wrap;html=1;strokeWidth=1;fontSize=13;" parent="4np4y0qemSY5XBgseXxE-599" vertex="1">
          <mxGeometry x="150" width="110" height="30" as="geometry">
            <mxRectangle width="110" height="30" as="alternateBounds" />
          </mxGeometry>
        </mxCell>
        <mxCell id="4np4y0qemSY5XBgseXxE-603" value="" style="shape=tableRow;horizontal=0;startSize=0;swimlaneHead=0;swimlaneBody=0;fillColor=none;collapsible=0;dropTarget=0;points=[[0,0.5],[1,0.5]];portConstraint=eastwest;top=0;left=0;right=0;bottom=1;fontSize=13;" parent="4np4y0qemSY5XBgseXxE-586" vertex="1">
          <mxGeometry y="150" width="260" height="30" as="geometry" />
        </mxCell>
        <mxCell id="4np4y0qemSY5XBgseXxE-604" value="" style="shape=partialRectangle;connectable=0;fillColor=none;top=1;left=0;bottom=1;right=0;fontStyle=2;overflow=hidden;whiteSpace=wrap;html=1;strokeWidth=1;fontSize=13;" parent="4np4y0qemSY5XBgseXxE-603" vertex="1">
          <mxGeometry width="30" height="30" as="geometry">
            <mxRectangle width="30" height="30" as="alternateBounds" />
          </mxGeometry>
        </mxCell>
        <mxCell id="4np4y0qemSY5XBgseXxE-605" value="&lt;span style=&quot;font-style: normal; font-size: 13px;&quot;&gt;related_entity_type&lt;/span&gt;" style="shape=partialRectangle;connectable=0;fillColor=none;top=1;left=0;bottom=1;right=0;align=center;spacingLeft=6;fontStyle=2;overflow=hidden;whiteSpace=wrap;html=1;strokeWidth=1;fontSize=13;" parent="4np4y0qemSY5XBgseXxE-603" vertex="1">
          <mxGeometry x="30" width="120" height="30" as="geometry">
            <mxRectangle width="120" height="30" as="alternateBounds" />
          </mxGeometry>
        </mxCell>
        <mxCell id="4np4y0qemSY5XBgseXxE-606" value="&lt;span style=&quot;font-style: normal; font-size: 13px;&quot;&gt;VARCHAR(20)&lt;/span&gt;" style="shape=partialRectangle;connectable=0;fillColor=none;top=1;left=0;bottom=1;right=0;align=center;spacingLeft=6;fontStyle=2;overflow=hidden;whiteSpace=wrap;html=1;strokeWidth=1;fontSize=13;" parent="4np4y0qemSY5XBgseXxE-603" vertex="1">
          <mxGeometry x="150" width="110" height="30" as="geometry">
            <mxRectangle width="110" height="30" as="alternateBounds" />
          </mxGeometry>
        </mxCell>
        <mxCell id="4np4y0qemSY5XBgseXxE-607" value="" style="shape=tableRow;horizontal=0;startSize=0;swimlaneHead=0;swimlaneBody=0;fillColor=none;collapsible=0;dropTarget=0;points=[[0,0.5],[1,0.5]];portConstraint=eastwest;top=0;left=0;right=0;bottom=1;fontSize=13;" parent="4np4y0qemSY5XBgseXxE-586" vertex="1">
          <mxGeometry y="180" width="260" height="30" as="geometry" />
        </mxCell>
        <mxCell id="4np4y0qemSY5XBgseXxE-608" value="" style="shape=partialRectangle;connectable=0;fillColor=none;top=1;left=0;bottom=1;right=0;fontStyle=2;overflow=hidden;whiteSpace=wrap;html=1;strokeWidth=1;fontSize=13;" parent="4np4y0qemSY5XBgseXxE-607" vertex="1">
          <mxGeometry width="30" height="30" as="geometry">
            <mxRectangle width="30" height="30" as="alternateBounds" />
          </mxGeometry>
        </mxCell>
        <mxCell id="4np4y0qemSY5XBgseXxE-609" value="&lt;span style=&quot;font-style: normal; font-size: 13px;&quot;&gt;related_entity_id&lt;/span&gt;" style="shape=partialRectangle;connectable=0;fillColor=none;top=1;left=0;bottom=1;right=0;align=center;spacingLeft=6;fontStyle=2;overflow=hidden;whiteSpace=wrap;html=1;strokeWidth=1;fontSize=13;" parent="4np4y0qemSY5XBgseXxE-607" vertex="1">
          <mxGeometry x="30" width="120" height="30" as="geometry">
            <mxRectangle width="120" height="30" as="alternateBounds" />
          </mxGeometry>
        </mxCell>
        <mxCell id="4np4y0qemSY5XBgseXxE-610" value="&lt;span style=&quot;font-style: normal; font-size: 13px;&quot;&gt;INT&lt;/span&gt;" style="shape=partialRectangle;connectable=0;fillColor=none;top=1;left=0;bottom=1;right=0;align=center;spacingLeft=6;fontStyle=2;overflow=hidden;whiteSpace=wrap;html=1;strokeWidth=1;fontSize=13;" parent="4np4y0qemSY5XBgseXxE-607" vertex="1">
          <mxGeometry x="150" width="110" height="30" as="geometry">
            <mxRectangle width="110" height="30" as="alternateBounds" />
          </mxGeometry>
        </mxCell>
        <mxCell id="4np4y0qemSY5XBgseXxE-648" style="edgeStyle=orthogonalEdgeStyle;rounded=0;orthogonalLoop=1;jettySize=auto;html=1;fontFamily=Helvetica;fontSize=13;fontColor=default;endArrow=ERzeroToMany;endFill=0;startArrow=ERmandOne;startFill=0;" parent="WIyWlLk6GJQsqaUBKTNV-1" source="4np4y0qemSY5XBgseXxE-326" target="4np4y0qemSY5XBgseXxE-631" edge="1">
          <mxGeometry relative="1" as="geometry" />
        </mxCell>
        <mxCell id="4np4y0qemSY5XBgseXxE-649" value="Participaion in" style="edgeLabel;html=1;align=center;verticalAlign=middle;resizable=0;points=[];strokeColor=default;fontFamily=Helvetica;fontSize=13;fontColor=default;fillColor=none;" parent="4np4y0qemSY5XBgseXxE-648" vertex="1" connectable="0">
          <mxGeometry x="-0.0918" relative="1" as="geometry">
            <mxPoint as="offset" />
          </mxGeometry>
        </mxCell>
        <mxCell id="4np4y0qemSY5XBgseXxE-651" style="edgeStyle=orthogonalEdgeStyle;rounded=0;orthogonalLoop=1;jettySize=auto;html=1;entryX=0.487;entryY=1.027;entryDx=0;entryDy=0;entryPerimeter=0;fontFamily=Helvetica;fontSize=13;fontColor=default;dashed=1;curved=1;" parent="WIyWlLk6GJQsqaUBKTNV-1" source="4np4y0qemSY5XBgseXxE-595" target="4np4y0qemSY5XBgseXxE-342" edge="1">
          <mxGeometry relative="1" as="geometry">
            <mxPoint x="151.32000000000016" y="959.99" as="targetPoint" />
          </mxGeometry>
        </mxCell>
        <mxCell id="4np4y0qemSY5XBgseXxE-654" value="" style="edgeLabel;html=1;align=center;verticalAlign=middle;resizable=0;points=[];strokeColor=default;fontFamily=Helvetica;fontSize=13;fontColor=default;fillColor=none;" parent="4np4y0qemSY5XBgseXxE-651" vertex="1" connectable="0">
          <mxGeometry x="-0.2852" y="5" relative="1" as="geometry">
            <mxPoint x="1" as="offset" />
          </mxGeometry>
        </mxCell>
        <mxCell id="4np4y0qemSY5XBgseXxE-655" value="Relates to" style="edgeLabel;html=1;align=center;verticalAlign=middle;resizable=0;points=[];strokeColor=default;fontFamily=Helvetica;fontSize=13;fontColor=default;fillColor=none;" parent="4np4y0qemSY5XBgseXxE-651" vertex="1" connectable="0">
          <mxGeometry x="-0.139" y="2" relative="1" as="geometry">
            <mxPoint x="1" as="offset" />
          </mxGeometry>
        </mxCell>
        <mxCell id="4np4y0qemSY5XBgseXxE-652" style="edgeStyle=orthogonalEdgeStyle;rounded=0;orthogonalLoop=1;jettySize=auto;html=1;fontFamily=Helvetica;fontSize=13;fontColor=default;entryX=0;entryY=0.5;entryDx=0;entryDy=0;dashed=1;curved=1;" parent="WIyWlLk6GJQsqaUBKTNV-1" source="4np4y0qemSY5XBgseXxE-595" target="4np4y0qemSY5XBgseXxE-577" edge="1">
          <mxGeometry relative="1" as="geometry">
            <mxPoint x="1530" y="980" as="targetPoint" />
          </mxGeometry>
        </mxCell>
        <mxCell id="4np4y0qemSY5XBgseXxE-656" value="Relates to" style="edgeLabel;html=1;align=center;verticalAlign=middle;resizable=0;points=[];strokeColor=default;fontFamily=Helvetica;fontSize=13;fontColor=default;fillColor=none;" parent="4np4y0qemSY5XBgseXxE-652" vertex="1" connectable="0">
          <mxGeometry x="-0.0708" y="12" relative="1" as="geometry">
            <mxPoint y="-1" as="offset" />
          </mxGeometry>
        </mxCell>
        <mxCell id="SI6b12-N1GQDOYppAXkW-0" style="edgeStyle=orthogonalEdgeStyle;rounded=0;orthogonalLoop=1;jettySize=auto;html=1;entryX=0.993;entryY=1.028;entryDx=0;entryDy=0;curved=1;dashed=1;entryPerimeter=0;fontSize=13;" parent="WIyWlLk6GJQsqaUBKTNV-1" source="4np4y0qemSY5XBgseXxE-587" target="4np4y0qemSY5XBgseXxE-631" edge="1">
          <mxGeometry relative="1" as="geometry" />
        </mxCell>
        <mxCell id="SI6b12-N1GQDOYppAXkW-1" value="Related to" style="edgeLabel;html=1;align=center;verticalAlign=middle;resizable=0;points=[];fontSize=13;" parent="SI6b12-N1GQDOYppAXkW-0" vertex="1" connectable="0">
          <mxGeometry x="0.7342" y="-3" relative="1" as="geometry">
            <mxPoint y="-1" as="offset" />
          </mxGeometry>
        </mxCell>
        <mxCell id="SI6b12-N1GQDOYppAXkW-8" style="edgeStyle=orthogonalEdgeStyle;rounded=0;orthogonalLoop=1;jettySize=auto;html=1;curved=1;dashed=1;fontSize=13;exitX=1;exitY=0.5;exitDx=0;exitDy=0;" parent="WIyWlLk6GJQsqaUBKTNV-1" source="4np4y0qemSY5XBgseXxE-607" target="4np4y0qemSY5XBgseXxE-485" edge="1">
          <mxGeometry relative="1" as="geometry">
            <mxPoint x="1210" y="1154" as="sourcePoint" />
            <mxPoint x="1780" y="100" as="targetPoint" />
            <Array as="points">
              <mxPoint x="1200" y="1150" />
              <mxPoint x="2020" y="1150" />
              <mxPoint x="2020" y="100" />
            </Array>
          </mxGeometry>
        </mxCell>
        <mxCell id="SI6b12-N1GQDOYppAXkW-9" value="Related to" style="edgeLabel;html=1;align=center;verticalAlign=middle;resizable=0;points=[];fontSize=13;" parent="SI6b12-N1GQDOYppAXkW-8" vertex="1" connectable="0">
          <mxGeometry x="0.3824" y="1" relative="1" as="geometry">
            <mxPoint as="offset" />
          </mxGeometry>
        </mxCell>
        <mxCell id="SI6b12-N1GQDOYppAXkW-10" style="edgeStyle=orthogonalEdgeStyle;rounded=0;orthogonalLoop=1;jettySize=auto;html=1;entryX=0.003;entryY=0.128;entryDx=0;entryDy=0;entryPerimeter=0;curved=1;dashed=1;fontSize=13;" parent="WIyWlLk6GJQsqaUBKTNV-1" source="4np4y0qemSY5XBgseXxE-603" target="4np4y0qemSY5XBgseXxE-524" edge="1">
          <mxGeometry relative="1" as="geometry">
            <mxPoint x="220" y="40" as="targetPoint" />
            <Array as="points">
              <mxPoint x="1070" y="1150" />
              <mxPoint x="-190" y="1150" />
              <mxPoint x="-190" y="55" />
            </Array>
          </mxGeometry>
        </mxCell>
        <mxCell id="SI6b12-N1GQDOYppAXkW-11" value="Related to" style="edgeLabel;html=1;align=center;verticalAlign=middle;resizable=0;points=[];fontSize=13;" parent="SI6b12-N1GQDOYppAXkW-10" vertex="1" connectable="0">
          <mxGeometry x="0.3882" y="-7" relative="1" as="geometry">
            <mxPoint as="offset" />
          </mxGeometry>
        </mxCell>
        <mxCell id="SI6b12-N1GQDOYppAXkW-38" style="edgeStyle=orthogonalEdgeStyle;rounded=0;orthogonalLoop=1;jettySize=auto;html=1;entryX=0.5;entryY=0;entryDx=0;entryDy=0;exitX=1;exitY=0.5;exitDx=0;exitDy=0;startArrow=ERmandOne;startFill=0;endArrow=ERmandOne;endFill=0;" parent="WIyWlLk6GJQsqaUBKTNV-1" source="SI6b12-N1GQDOYppAXkW-22" target="4np4y0qemSY5XBgseXxE-564" edge="1">
          <mxGeometry relative="1" as="geometry" />
        </mxCell>
        <mxCell id="SI6b12-N1GQDOYppAXkW-40" value="Refers to cleaning day" style="edgeLabel;html=1;align=center;verticalAlign=middle;resizable=0;points=[];fontSize=13;" parent="SI6b12-N1GQDOYppAXkW-38" vertex="1" connectable="0">
          <mxGeometry x="-0.2151" y="2" relative="1" as="geometry">
            <mxPoint y="1" as="offset" />
          </mxGeometry>
        </mxCell>
        <mxCell id="SI6b12-N1GQDOYppAXkW-17" value="&lt;span style=&quot;font-size: 13px;&quot;&gt;&lt;font style=&quot;font-size: 13px;&quot;&gt;CleanDay_Image&lt;/font&gt;&lt;/span&gt;" style="shape=table;startSize=30;container=1;collapsible=1;childLayout=tableLayout;fixedRows=1;rowLines=0;fontStyle=1;align=center;resizeLast=1;html=1;fontSize=13;" parent="WIyWlLk6GJQsqaUBKTNV-1" vertex="1">
          <mxGeometry x="1320" y="450" width="190" height="90" as="geometry" />
        </mxCell>
        <mxCell id="SI6b12-N1GQDOYppAXkW-18" value="" style="shape=tableRow;horizontal=0;startSize=0;swimlaneHead=0;swimlaneBody=0;fillColor=none;collapsible=0;dropTarget=0;points=[[0,0.5],[1,0.5]];portConstraint=eastwest;top=0;left=0;right=0;bottom=1;fontSize=13;" parent="SI6b12-N1GQDOYppAXkW-17" vertex="1">
          <mxGeometry y="30" width="190" height="30" as="geometry" />
        </mxCell>
        <mxCell id="SI6b12-N1GQDOYppAXkW-19" value="PK, FK" style="shape=partialRectangle;connectable=0;fillColor=none;top=1;left=0;bottom=1;right=0;fontStyle=3;overflow=hidden;whiteSpace=wrap;html=1;strokeWidth=1;fontSize=13;" parent="SI6b12-N1GQDOYppAXkW-18" vertex="1">
          <mxGeometry width="30" height="30" as="geometry">
            <mxRectangle width="30" height="30" as="alternateBounds" />
          </mxGeometry>
        </mxCell>
        <mxCell id="SI6b12-N1GQDOYppAXkW-20" value="cleanday_id" style="shape=partialRectangle;connectable=0;fillColor=none;top=1;left=0;bottom=1;right=0;align=center;spacingLeft=6;fontStyle=3;overflow=hidden;whiteSpace=wrap;html=1;strokeWidth=1;fontSize=13;" parent="SI6b12-N1GQDOYppAXkW-18" vertex="1">
          <mxGeometry x="30" width="100" height="30" as="geometry">
            <mxRectangle width="100" height="30" as="alternateBounds" />
          </mxGeometry>
        </mxCell>
        <mxCell id="SI6b12-N1GQDOYppAXkW-21" value="INT" style="shape=partialRectangle;connectable=0;fillColor=none;top=1;left=0;bottom=1;right=0;align=center;spacingLeft=6;fontStyle=3;overflow=hidden;whiteSpace=wrap;html=1;strokeWidth=1;fontSize=13;" parent="SI6b12-N1GQDOYppAXkW-18" vertex="1">
          <mxGeometry x="130" width="60" height="30" as="geometry">
            <mxRectangle width="60" height="30" as="alternateBounds" />
          </mxGeometry>
        </mxCell>
        <mxCell id="SI6b12-N1GQDOYppAXkW-22" value="" style="shape=tableRow;horizontal=0;startSize=0;swimlaneHead=0;swimlaneBody=0;fillColor=none;collapsible=0;dropTarget=0;points=[[0,0.5],[1,0.5]];portConstraint=eastwest;top=0;left=0;right=0;bottom=1;fontSize=13;" parent="SI6b12-N1GQDOYppAXkW-17" vertex="1">
          <mxGeometry y="60" width="190" height="30" as="geometry" />
        </mxCell>
        <mxCell id="SI6b12-N1GQDOYppAXkW-23" value="PK, FK" style="shape=partialRectangle;connectable=0;fillColor=none;top=1;left=0;bottom=1;right=0;fontStyle=3;overflow=hidden;whiteSpace=wrap;html=1;strokeWidth=1;fontSize=13;" parent="SI6b12-N1GQDOYppAXkW-22" vertex="1">
          <mxGeometry width="30" height="30" as="geometry">
            <mxRectangle width="30" height="30" as="alternateBounds" />
          </mxGeometry>
        </mxCell>
        <mxCell id="SI6b12-N1GQDOYppAXkW-24" value="image_id" style="shape=partialRectangle;connectable=0;fillColor=none;top=1;left=0;bottom=1;right=0;align=center;spacingLeft=6;fontStyle=3;overflow=hidden;whiteSpace=wrap;html=1;strokeWidth=1;fontSize=13;" parent="SI6b12-N1GQDOYppAXkW-22" vertex="1">
          <mxGeometry x="30" width="100" height="30" as="geometry">
            <mxRectangle width="100" height="30" as="alternateBounds" />
          </mxGeometry>
        </mxCell>
        <mxCell id="SI6b12-N1GQDOYppAXkW-25" value="INT" style="shape=partialRectangle;connectable=0;fillColor=none;top=1;left=0;bottom=1;right=0;align=center;spacingLeft=6;fontStyle=3;overflow=hidden;whiteSpace=wrap;html=1;strokeWidth=1;fontSize=13;" parent="SI6b12-N1GQDOYppAXkW-22" vertex="1">
          <mxGeometry x="130" width="60" height="30" as="geometry">
            <mxRectangle width="60" height="30" as="alternateBounds" />
          </mxGeometry>
        </mxCell>
        <mxCell id="SI6b12-N1GQDOYppAXkW-26" value="&lt;span style=&quot;font-size: 13px;&quot;&gt;&lt;font style=&quot;font-size: 13px;&quot;&gt;Location_Image&lt;/font&gt;&lt;/span&gt;" style="shape=table;startSize=30;container=1;collapsible=1;childLayout=tableLayout;fixedRows=1;rowLines=0;fontStyle=1;align=center;resizeLast=1;html=1;fontSize=13;" parent="WIyWlLk6GJQsqaUBKTNV-1" vertex="1">
          <mxGeometry x="1560" y="450" width="190" height="90" as="geometry" />
        </mxCell>
        <mxCell id="SI6b12-N1GQDOYppAXkW-27" value="" style="shape=tableRow;horizontal=0;startSize=0;swimlaneHead=0;swimlaneBody=0;fillColor=none;collapsible=0;dropTarget=0;points=[[0,0.5],[1,0.5]];portConstraint=eastwest;top=0;left=0;right=0;bottom=1;fontSize=13;" parent="SI6b12-N1GQDOYppAXkW-26" vertex="1">
          <mxGeometry y="30" width="190" height="30" as="geometry" />
        </mxCell>
        <mxCell id="SI6b12-N1GQDOYppAXkW-28" value="PK, FK" style="shape=partialRectangle;connectable=0;fillColor=none;top=1;left=0;bottom=1;right=0;fontStyle=3;overflow=hidden;whiteSpace=wrap;html=1;strokeWidth=1;fontSize=13;" parent="SI6b12-N1GQDOYppAXkW-27" vertex="1">
          <mxGeometry width="30" height="30" as="geometry">
            <mxRectangle width="30" height="30" as="alternateBounds" />
          </mxGeometry>
        </mxCell>
        <mxCell id="SI6b12-N1GQDOYppAXkW-29" value="location_id" style="shape=partialRectangle;connectable=0;fillColor=none;top=1;left=0;bottom=1;right=0;align=center;spacingLeft=6;fontStyle=3;overflow=hidden;whiteSpace=wrap;html=1;strokeWidth=1;fontSize=13;" parent="SI6b12-N1GQDOYppAXkW-27" vertex="1">
          <mxGeometry x="30" width="100" height="30" as="geometry">
            <mxRectangle width="100" height="30" as="alternateBounds" />
          </mxGeometry>
        </mxCell>
        <mxCell id="SI6b12-N1GQDOYppAXkW-30" value="INT" style="shape=partialRectangle;connectable=0;fillColor=none;top=1;left=0;bottom=1;right=0;align=center;spacingLeft=6;fontStyle=3;overflow=hidden;whiteSpace=wrap;html=1;strokeWidth=1;fontSize=13;" parent="SI6b12-N1GQDOYppAXkW-27" vertex="1">
          <mxGeometry x="130" width="60" height="30" as="geometry">
            <mxRectangle width="60" height="30" as="alternateBounds" />
          </mxGeometry>
        </mxCell>
        <mxCell id="SI6b12-N1GQDOYppAXkW-31" value="" style="shape=tableRow;horizontal=0;startSize=0;swimlaneHead=0;swimlaneBody=0;fillColor=none;collapsible=0;dropTarget=0;points=[[0,0.5],[1,0.5]];portConstraint=eastwest;top=0;left=0;right=0;bottom=1;fontSize=13;" parent="SI6b12-N1GQDOYppAXkW-26" vertex="1">
          <mxGeometry y="60" width="190" height="30" as="geometry" />
        </mxCell>
        <mxCell id="SI6b12-N1GQDOYppAXkW-32" value="PK, FK" style="shape=partialRectangle;connectable=0;fillColor=none;top=1;left=0;bottom=1;right=0;fontStyle=3;overflow=hidden;whiteSpace=wrap;html=1;strokeWidth=1;fontSize=13;" parent="SI6b12-N1GQDOYppAXkW-31" vertex="1">
          <mxGeometry width="30" height="30" as="geometry">
            <mxRectangle width="30" height="30" as="alternateBounds" />
          </mxGeometry>
        </mxCell>
        <mxCell id="SI6b12-N1GQDOYppAXkW-33" value="image_id" style="shape=partialRectangle;connectable=0;fillColor=none;top=1;left=0;bottom=1;right=0;align=center;spacingLeft=6;fontStyle=3;overflow=hidden;whiteSpace=wrap;html=1;strokeWidth=1;fontSize=13;" parent="SI6b12-N1GQDOYppAXkW-31" vertex="1">
          <mxGeometry x="30" width="100" height="30" as="geometry">
            <mxRectangle width="100" height="30" as="alternateBounds" />
          </mxGeometry>
        </mxCell>
        <mxCell id="SI6b12-N1GQDOYppAXkW-34" value="INT" style="shape=partialRectangle;connectable=0;fillColor=none;top=1;left=0;bottom=1;right=0;align=center;spacingLeft=6;fontStyle=3;overflow=hidden;whiteSpace=wrap;html=1;strokeWidth=1;fontSize=13;" parent="SI6b12-N1GQDOYppAXkW-31" vertex="1">
          <mxGeometry x="130" width="60" height="30" as="geometry">
            <mxRectangle width="60" height="30" as="alternateBounds" />
          </mxGeometry>
        </mxCell>
        <mxCell id="SI6b12-N1GQDOYppAXkW-37" style="edgeStyle=orthogonalEdgeStyle;rounded=0;orthogonalLoop=1;jettySize=auto;html=1;entryX=0;entryY=0.5;entryDx=0;entryDy=0;exitX=0.833;exitY=0.972;exitDx=0;exitDy=0;exitPerimeter=0;endArrow=ERzeroToMany;endFill=0;startArrow=ERmandOne;startFill=0;" parent="WIyWlLk6GJQsqaUBKTNV-1" source="4np4y0qemSY5XBgseXxE-404" target="SI6b12-N1GQDOYppAXkW-18" edge="1">
          <mxGeometry relative="1" as="geometry" />
        </mxCell>
        <mxCell id="SI6b12-N1GQDOYppAXkW-39" value="Has images" style="edgeLabel;html=1;align=center;verticalAlign=middle;resizable=0;points=[];fontSize=13;" parent="SI6b12-N1GQDOYppAXkW-37" vertex="1" connectable="0">
          <mxGeometry x="-0.3173" y="1" relative="1" as="geometry">
            <mxPoint as="offset" />
          </mxGeometry>
        </mxCell>
        <mxCell id="SI6b12-N1GQDOYppAXkW-41" style="edgeStyle=orthogonalEdgeStyle;rounded=0;orthogonalLoop=1;jettySize=auto;html=1;entryX=0.5;entryY=0;entryDx=0;entryDy=0;startArrow=ERmandOne;startFill=0;endArrow=ERzeroToMany;endFill=0;" parent="WIyWlLk6GJQsqaUBKTNV-1" source="4np4y0qemSY5XBgseXxE-499" target="SI6b12-N1GQDOYppAXkW-26" edge="1">
          <mxGeometry relative="1" as="geometry" />
        </mxCell>
        <mxCell id="SI6b12-N1GQDOYppAXkW-44" value="Has images" style="edgeLabel;html=1;align=center;verticalAlign=middle;resizable=0;points=[];fontSize=13;" parent="SI6b12-N1GQDOYppAXkW-41" vertex="1" connectable="0">
          <mxGeometry x="0.1163" y="-1" relative="1" as="geometry">
            <mxPoint y="-1" as="offset" />
          </mxGeometry>
        </mxCell>
        <mxCell id="SI6b12-N1GQDOYppAXkW-42" style="edgeStyle=orthogonalEdgeStyle;rounded=0;orthogonalLoop=1;jettySize=auto;html=1;entryX=1;entryY=0.5;entryDx=0;entryDy=0;exitX=1;exitY=0.5;exitDx=0;exitDy=0;startArrow=ERmandOne;startFill=0;endArrow=ERmandOne;endFill=0;" parent="WIyWlLk6GJQsqaUBKTNV-1" source="SI6b12-N1GQDOYppAXkW-31" target="4np4y0qemSY5XBgseXxE-565" edge="1">
          <mxGeometry relative="1" as="geometry" />
        </mxCell>
        <mxCell id="SI6b12-N1GQDOYppAXkW-45" value="Refers to location" style="edgeLabel;html=1;align=center;verticalAlign=middle;resizable=0;points=[];fontSize=13;" parent="SI6b12-N1GQDOYppAXkW-42" vertex="1" connectable="0">
          <mxGeometry x="-0.2343" y="2" relative="1" as="geometry">
            <mxPoint y="1" as="offset" />
          </mxGeometry>
        </mxCell>
        <mxCell id="smazsBdz7IzbDjJHdlYX-1" value="&lt;span style=&quot;font-size: 13px;&quot;&gt;&lt;font style=&quot;font-size: 13px;&quot;&gt;User_Image&lt;/font&gt;&lt;/span&gt;" style="shape=table;startSize=30;container=1;collapsible=1;childLayout=tableLayout;fixedRows=1;rowLines=0;fontStyle=1;align=center;resizeLast=1;html=1;fontSize=13;" vertex="1" parent="WIyWlLk6GJQsqaUBKTNV-1">
          <mxGeometry x="400" y="910" width="190" height="90" as="geometry" />
        </mxCell>
        <mxCell id="smazsBdz7IzbDjJHdlYX-2" value="" style="shape=tableRow;horizontal=0;startSize=0;swimlaneHead=0;swimlaneBody=0;fillColor=none;collapsible=0;dropTarget=0;points=[[0,0.5],[1,0.5]];portConstraint=eastwest;top=0;left=0;right=0;bottom=1;fontSize=13;" vertex="1" parent="smazsBdz7IzbDjJHdlYX-1">
          <mxGeometry y="30" width="190" height="30" as="geometry" />
        </mxCell>
        <mxCell id="smazsBdz7IzbDjJHdlYX-3" value="PK, FK" style="shape=partialRectangle;connectable=0;fillColor=none;top=1;left=0;bottom=1;right=0;fontStyle=3;overflow=hidden;whiteSpace=wrap;html=1;strokeWidth=1;fontSize=13;" vertex="1" parent="smazsBdz7IzbDjJHdlYX-2">
          <mxGeometry width="30" height="30" as="geometry">
            <mxRectangle width="30" height="30" as="alternateBounds" />
          </mxGeometry>
        </mxCell>
        <mxCell id="smazsBdz7IzbDjJHdlYX-4" value="user_id" style="shape=partialRectangle;connectable=0;fillColor=none;top=1;left=0;bottom=1;right=0;align=center;spacingLeft=6;fontStyle=3;overflow=hidden;whiteSpace=wrap;html=1;strokeWidth=1;fontSize=13;" vertex="1" parent="smazsBdz7IzbDjJHdlYX-2">
          <mxGeometry x="30" width="100" height="30" as="geometry">
            <mxRectangle width="100" height="30" as="alternateBounds" />
          </mxGeometry>
        </mxCell>
        <mxCell id="smazsBdz7IzbDjJHdlYX-5" value="INT" style="shape=partialRectangle;connectable=0;fillColor=none;top=1;left=0;bottom=1;right=0;align=center;spacingLeft=6;fontStyle=3;overflow=hidden;whiteSpace=wrap;html=1;strokeWidth=1;fontSize=13;" vertex="1" parent="smazsBdz7IzbDjJHdlYX-2">
          <mxGeometry x="130" width="60" height="30" as="geometry">
            <mxRectangle width="60" height="30" as="alternateBounds" />
          </mxGeometry>
        </mxCell>
        <mxCell id="smazsBdz7IzbDjJHdlYX-6" value="" style="shape=tableRow;horizontal=0;startSize=0;swimlaneHead=0;swimlaneBody=0;fillColor=none;collapsible=0;dropTarget=0;points=[[0,0.5],[1,0.5]];portConstraint=eastwest;top=0;left=0;right=0;bottom=1;fontSize=13;" vertex="1" parent="smazsBdz7IzbDjJHdlYX-1">
          <mxGeometry y="60" width="190" height="30" as="geometry" />
        </mxCell>
        <mxCell id="smazsBdz7IzbDjJHdlYX-7" value="PK, FK" style="shape=partialRectangle;connectable=0;fillColor=none;top=1;left=0;bottom=1;right=0;fontStyle=3;overflow=hidden;whiteSpace=wrap;html=1;strokeWidth=1;fontSize=13;" vertex="1" parent="smazsBdz7IzbDjJHdlYX-6">
          <mxGeometry width="30" height="30" as="geometry">
            <mxRectangle width="30" height="30" as="alternateBounds" />
          </mxGeometry>
        </mxCell>
        <mxCell id="smazsBdz7IzbDjJHdlYX-8" value="image_id" style="shape=partialRectangle;connectable=0;fillColor=none;top=1;left=0;bottom=1;right=0;align=center;spacingLeft=6;fontStyle=3;overflow=hidden;whiteSpace=wrap;html=1;strokeWidth=1;fontSize=13;" vertex="1" parent="smazsBdz7IzbDjJHdlYX-6">
          <mxGeometry x="30" width="100" height="30" as="geometry">
            <mxRectangle width="100" height="30" as="alternateBounds" />
          </mxGeometry>
        </mxCell>
        <mxCell id="smazsBdz7IzbDjJHdlYX-9" value="INT" style="shape=partialRectangle;connectable=0;fillColor=none;top=1;left=0;bottom=1;right=0;align=center;spacingLeft=6;fontStyle=3;overflow=hidden;whiteSpace=wrap;html=1;strokeWidth=1;fontSize=13;" vertex="1" parent="smazsBdz7IzbDjJHdlYX-6">
          <mxGeometry x="130" width="60" height="30" as="geometry">
            <mxRectangle width="60" height="30" as="alternateBounds" />
          </mxGeometry>
        </mxCell>
        <mxCell id="smazsBdz7IzbDjJHdlYX-12" style="edgeStyle=orthogonalEdgeStyle;rounded=0;orthogonalLoop=1;jettySize=auto;html=1;entryX=0;entryY=0.5;entryDx=0;entryDy=0;exitX=0.833;exitY=0.996;exitDx=0;exitDy=0;exitPerimeter=0;endArrow=ERzeroToOne;endFill=0;startArrow=ERmandOne;startFill=0;" edge="1" parent="WIyWlLk6GJQsqaUBKTNV-1" source="4np4y0qemSY5XBgseXxE-342" target="smazsBdz7IzbDjJHdlYX-2">
          <mxGeometry relative="1" as="geometry" />
        </mxCell>
        <mxCell id="smazsBdz7IzbDjJHdlYX-15" value="&lt;font style=&quot;font-size: 13px;&quot;&gt;Has image&lt;/font&gt;" style="edgeLabel;html=1;align=center;verticalAlign=middle;resizable=0;points=[];" vertex="1" connectable="0" parent="smazsBdz7IzbDjJHdlYX-12">
          <mxGeometry x="-0.027" y="-1" relative="1" as="geometry">
            <mxPoint as="offset" />
          </mxGeometry>
        </mxCell>
        <mxCell id="smazsBdz7IzbDjJHdlYX-13" style="edgeStyle=orthogonalEdgeStyle;rounded=0;orthogonalLoop=1;jettySize=auto;html=1;entryX=0;entryY=0.5;entryDx=0;entryDy=0;endArrow=ERmandOne;endFill=0;startArrow=ERzeroToOne;startFill=0;" edge="1" parent="WIyWlLk6GJQsqaUBKTNV-1" source="smazsBdz7IzbDjJHdlYX-6" target="4np4y0qemSY5XBgseXxE-565">
          <mxGeometry relative="1" as="geometry">
            <Array as="points">
              <mxPoint x="870" y="985" />
              <mxPoint x="870" y="874" />
            </Array>
          </mxGeometry>
        </mxCell>
        <mxCell id="smazsBdz7IzbDjJHdlYX-14" value="&lt;font style=&quot;font-size: 13px;&quot;&gt;User&#39;s avatar&lt;/font&gt;" style="edgeLabel;html=1;align=center;verticalAlign=middle;resizable=0;points=[];" vertex="1" connectable="0" parent="smazsBdz7IzbDjJHdlYX-13">
          <mxGeometry x="-0.2689" y="-3" relative="1" as="geometry">
            <mxPoint y="1" as="offset" />
          </mxGeometry>
        </mxCell>
      </root>
    </mxGraphModel>
  </diagram>
</mxfile>
